<svg xmlns="http://www.w3.org/2000/svg" xmlns:xlink="http://www.w3.org/1999/xlink" width="370" zoomAndPan="magnify" viewBox="0 0 277.5 110.249996" height="147" preserveAspectRatio="xMidYMid meet" version="1.2"><defs><clipPath id="c9d72b4881"><path d="M 223 21 L 251 21 L 251 48 L 223 48 Z M 223 21 "/></clipPath><clipPath id="23ca915d4f"><path d="M 218.519531 25.46875 L 237.210938 8.191406 L 262.808594 35.882812 L 244.117188 53.160156 Z M 218.519531 25.46875 "/></clipPath><clipPath id="a53b2aeb52"><path d="M 218.519531 25.46875 L 237.210938 8.191406 L 262.808594 35.882812 L 244.117188 53.160156 Z M 218.519531 25.46875 "/></clipPath><clipPath id="6dabb35d8c"><path d="M 237 8 L 264 8 L 264 36 L 237 36 Z M 237 8 "/></clipPath><clipPath id="ab36f469de"><path d="M 231.933594 13.070312 L 250.625 -4.207031 L 276.21875 23.484375 L 257.527344 40.761719 Z M 231.933594 13.070312 "/></clipPath><clipPath id="4a36438462"><path d="M 231.933594 13.070312 L 250.625 -4.207031 L 276.21875 23.484375 L 257.527344 40.761719 Z M 231.933594 13.070312 "/></clipPath></defs><g id="7d1fe45906"><g clip-rule="nonzero" clip-path="url(#c9d72b4881)"><g clip-rule="nonzero" clip-path="url(#23ca915d4f)"><g clip-rule="nonzero" clip-path="url(#a53b2aeb52)"><path style=" stroke:none;fill-rule:nonzero;fill:#18cb96;fill-opacity:1;" d="M 250.019531 22.394531 L 227.496094 21.394531 C 223.144531 21.199219 222.410156 29.675781 227.566406 29.816406 L 241.582031 30.195312 L 240.511719 44.296875 C 240.183594 48.59375 248.558594 49.046875 248.796875 44.679688 Z M 250.019531 22.394531 "/></g></g></g><g clip-rule="nonzero" clip-path="url(#6dabb35d8c)"><g clip-rule="nonzero" clip-path="url(#ab36f469de)"><g clip-rule="nonzero" clip-path="url(#4a36438462)"><path style=" stroke:none;fill-rule:nonzero;fill:#18cb96;fill-opacity:1;" d="M 263.433594 10 L 240.910156 8.996094 C 236.558594 8.804688 235.824219 17.277344 240.976562 17.417969 L 254.992188 17.796875 L 253.921875 31.902344 C 253.597656 36.195312 261.972656 36.648438 262.210938 32.285156 Z M 263.433594 10 "/></g></g></g><g style="fill:#ffffff;fill-opacity:1;"><g transform="translate(8.817188, 68.063721)"><path style="stroke:none" d="M 31.5 -34.328125 C 32.664062 -34.328125 33.609375 -33.941406 34.328125 -33.171875 C 35.046875 -32.410156 35.40625 -31.515625 35.40625 -30.484375 L 35.40625 -2.09375 C 35.40625 1.1875 34.640625 3.953125 33.109375 6.203125 C 31.578125 8.453125 29.53125 10.140625 26.96875 11.265625 C 24.40625 12.390625 21.550781 12.953125 18.40625 12.953125 C 15.800781 12.953125 13.441406 12.613281 11.328125 11.9375 C 9.210938 11.257812 7.234375 10.066406 5.390625 8.359375 C 4.492188 7.460938 4.066406 6.539062 4.109375 5.59375 C 4.160156 4.65625 4.519531 3.847656 5.1875 3.171875 C 5.863281 2.492188 6.6875 2.109375 7.65625 2.015625 C 8.625 1.929688 9.554688 2.296875 10.453125 3.109375 C 11.847656 4.316406 13.140625 5.097656 14.328125 5.453125 C 15.523438 5.816406 16.882812 6 18.40625 6 C 20.03125 6 21.5625 5.71875 23 5.15625 C 24.4375 4.59375 25.601562 3.703125 26.5 2.484375 C 27.40625 1.273438 27.859375 -0.25 27.859375 -2.09375 L 27.859375 -2.703125 C 26.328125 -1.578125 24.660156 -0.734375 22.859375 -0.171875 C 21.054688 0.390625 19.367188 0.671875 17.796875 0.671875 C 14.566406 0.671875 11.722656 -0.0664062 9.265625 -1.546875 C 6.816406 -3.035156 4.90625 -5.128906 3.53125 -7.828125 C 2.164062 -10.523438 1.484375 -13.671875 1.484375 -17.265625 C 1.484375 -20.773438 2.179688 -23.851562 3.578125 -26.5 C 4.972656 -29.15625 6.914062 -31.234375 9.40625 -32.734375 C 11.90625 -34.242188 14.796875 -35 18.078125 -35 C 19.597656 -35 21.222656 -34.773438 22.953125 -34.328125 C 24.691406 -33.878906 26.328125 -33.09375 27.859375 -31.96875 C 28.347656 -33.539062 29.5625 -34.328125 31.5 -34.328125 Z M 18 -6.140625 C 20.070312 -6.140625 22.039062 -6.585938 23.90625 -7.484375 C 25.769531 -8.378906 27.0625 -9.726562 27.78125 -11.53125 L 27.78125 -22.796875 C 26.925781 -24.503906 25.632812 -25.828125 23.90625 -26.765625 C 22.175781 -27.710938 20.410156 -28.1875 18.609375 -28.1875 C 15.773438 -28.1875 13.492188 -27.148438 11.765625 -25.078125 C 10.035156 -23.015625 9.171875 -20.390625 9.171875 -17.203125 C 9.171875 -13.867188 9.976562 -11.191406 11.59375 -9.171875 C 13.21875 -7.148438 15.351562 -6.140625 18 -6.140625 Z M 18 -6.140625 "/></g></g><g style="fill:#ffffff;fill-opacity:1;"><g transform="translate(47.93027, 68.063721)"><path style="stroke:none" d="M 18.203125 -34.328125 C 19.421875 -34.328125 20.390625 -34.066406 21.109375 -33.546875 C 21.828125 -33.035156 22.1875 -32.191406 22.1875 -31.015625 C 22.1875 -29.941406 21.828125 -29.085938 21.109375 -28.453125 C 20.390625 -27.828125 19.421875 -27.515625 18.203125 -27.515625 C 15.367188 -27.515625 13.378906 -26.5 12.234375 -24.46875 C 11.085938 -22.445312 10.515625 -19.707031 10.515625 -16.25 L 10.515625 -3.4375 C 10.515625 -2.445312 10.15625 -1.625 9.4375 -0.96875 C 8.71875 -0.320312 7.84375 0 6.8125 0 C 5.644531 0 4.703125 -0.320312 3.984375 -0.96875 C 3.265625 -1.625 2.90625 -2.445312 2.90625 -3.4375 L 2.90625 -30.890625 C 2.90625 -31.960938 3.316406 -32.800781 4.140625 -33.40625 C 4.972656 -34.019531 5.863281 -34.328125 6.8125 -34.328125 C 7.757812 -34.328125 8.613281 -34.035156 9.375 -33.453125 C 10.132812 -32.867188 10.515625 -32.015625 10.515625 -30.890625 L 10.515625 -30.484375 C 11.503906 -31.785156 12.648438 -32.75 13.953125 -33.375 C 15.265625 -34.007812 16.679688 -34.328125 18.203125 -34.328125 Z M 18.203125 -34.328125 "/></g></g><g style="fill:#ffffff;fill-opacity:1;"><g transform="translate(68.093452, 68.063721)"><path style="stroke:none" d="M 19.28125 -35 C 22.882812 -35 26.035156 -34.242188 28.734375 -32.734375 C 31.429688 -31.234375 33.519531 -29.132812 35 -26.4375 C 36.476562 -23.738281 37.21875 -20.59375 37.21875 -17 C 37.175781 -13.488281 36.398438 -10.40625 34.890625 -7.75 C 33.390625 -5.101562 31.300781 -3.035156 28.625 -1.546875 C 25.945312 -0.0664062 22.832031 0.671875 19.28125 0.671875 C 15.78125 0.671875 12.679688 -0.0664062 9.984375 -1.546875 C 7.285156 -3.035156 5.179688 -5.101562 3.671875 -7.75 C 2.171875 -10.40625 1.394531 -13.488281 1.34375 -17 C 1.34375 -20.59375 2.09375 -23.738281 3.59375 -26.4375 C 5.101562 -29.132812 7.207031 -31.234375 9.90625 -32.734375 C 12.601562 -34.242188 15.726562 -35 19.28125 -35 Z M 19.28125 -6.0625 C 22.34375 -6.0625 24.78125 -7.070312 26.59375 -9.09375 C 28.414062 -11.125 29.328125 -13.757812 29.328125 -17 C 29.328125 -20.320312 28.414062 -23.023438 26.59375 -25.109375 C 24.78125 -27.203125 22.34375 -28.25 19.28125 -28.25 C 16.269531 -28.25 13.84375 -27.203125 12 -25.109375 C 10.15625 -23.023438 9.234375 -20.320312 9.234375 -17 C 9.234375 -13.757812 10.15625 -11.125 12 -9.09375 C 13.84375 -7.070312 16.269531 -6.0625 19.28125 -6.0625 Z M 19.28125 -6.0625 "/></g></g><g style="fill:#ffffff;fill-opacity:1;"><g transform="translate(105.520597, 68.063721)"><path style="stroke:none" d="M 1.546875 -29.265625 C 1.140625 -30.210938 1.101562 -31.066406 1.4375 -31.828125 C 1.78125 -32.597656 2.3125 -33.207031 3.03125 -33.65625 C 3.75 -34.101562 4.492188 -34.328125 5.265625 -34.328125 C 6.023438 -34.328125 6.738281 -34.085938 7.40625 -33.609375 C 8.082031 -33.140625 8.535156 -32.613281 8.765625 -32.03125 L 17.53125 -12 L 25.96875 -29.328125 C 26.28125 -30.097656 26.75 -30.671875 27.375 -31.046875 C 28.007812 -31.429688 28.707031 -31.625 29.46875 -31.625 C 31.132812 -31.625 32.328125 -30.882812 33.046875 -29.40625 L 41.546875 -11.875 L 50.234375 -31.890625 C 50.953125 -33.515625 52.164062 -34.328125 53.875 -34.328125 C 55.050781 -34.328125 56.050781 -33.84375 56.875 -32.875 C 57.707031 -31.90625 57.832031 -30.722656 57.25 -29.328125 L 45.3125 -1.28125 C 44.820312 0.0195312 43.675781 0.671875 41.875 0.671875 C 41.113281 0.671875 40.40625 0.523438 39.75 0.234375 C 39.101562 -0.0546875 38.597656 -0.539062 38.234375 -1.21875 L 29.609375 -19.484375 L 20.765625 -1.28125 C 20.140625 0.0195312 18.925781 0.671875 17.125 0.671875 C 16.363281 0.671875 15.691406 0.523438 15.109375 0.234375 C 14.523438 -0.0546875 14.050781 -0.582031 13.6875 -1.34375 Z M 1.546875 -29.265625 "/></g></g><g style="fill:#ffffff;fill-opacity:1;"><g transform="translate(164.257953, 68.063721)"><path style="stroke:none" d="M 31.421875 -34.328125 C 32.585938 -34.328125 33.585938 -33.820312 34.421875 -32.8125 C 35.253906 -31.800781 35.425781 -30.617188 34.9375 -29.265625 L 15.234375 9.375 C 14.785156 10.226562 14.210938 10.898438 13.515625 11.390625 C 12.816406 11.890625 12.085938 12.140625 11.328125 12.140625 C 10.566406 12.140625 9.859375 11.878906 9.203125 11.359375 C 8.554688 10.847656 8.109375 10.1875 7.859375 9.375 C 7.609375 8.5625 7.707031 7.707031 8.15625 6.8125 L 13.28125 -3.296875 L 0 -29 C -0.40625 -29.894531 -0.460938 -30.75 -0.171875 -31.5625 C 0.117188 -32.375 0.601562 -33.035156 1.28125 -33.546875 C 1.957031 -34.066406 2.695312 -34.328125 3.5 -34.328125 C 4.21875 -34.328125 4.914062 -34.101562 5.59375 -33.65625 C 6.269531 -33.207031 6.765625 -32.617188 7.078125 -31.890625 L 17.46875 -11.59375 L 27.859375 -31.96875 C 28.171875 -32.6875 28.640625 -33.257812 29.265625 -33.6875 C 29.898438 -34.113281 30.617188 -34.328125 31.421875 -34.328125 Z M 31.421875 -34.328125 "/></g></g><g style="fill:#ffffff;fill-opacity:1;"><g transform="translate(199.392231, 68.063721)"><path style="stroke:none" d="M 31.421875 -34.328125 C 32.585938 -34.328125 33.585938 -33.820312 34.421875 -32.8125 C 35.253906 -31.800781 35.425781 -30.617188 34.9375 -29.265625 L 15.234375 9.375 C 14.785156 10.226562 14.210938 10.898438 13.515625 11.390625 C 12.816406 11.890625 12.085938 12.140625 11.328125 12.140625 C 10.566406 12.140625 9.859375 11.878906 9.203125 11.359375 C 8.554688 10.847656 8.109375 10.1875 7.859375 9.375 C 7.609375 8.5625 7.707031 7.707031 8.15625 6.8125 L 13.28125 -3.296875 L 0 -29 C -0.40625 -29.894531 -0.460938 -30.75 -0.171875 -31.5625 C 0.117188 -32.375 0.601562 -33.035156 1.28125 -33.546875 C 1.957031 -34.066406 2.695312 -34.328125 3.5 -34.328125 C 4.21875 -34.328125 4.914062 -34.101562 5.59375 -33.65625 C 6.269531 -33.207031 6.765625 -32.617188 7.078125 -31.890625 L 17.46875 -11.59375 L 27.859375 -31.96875 C 28.171875 -32.6875 28.640625 -33.257812 29.265625 -33.6875 C 29.898438 -34.113281 30.617188 -34.328125 31.421875 -34.328125 Z M 31.421875 -34.328125 "/></g></g><g style="fill:#d9d9d9;fill-opacity:1;"><g transform="translate(8.248896, 98.317321)"><path style="stroke:none" d="M 15.359375 -11.75 C 16.671875 -11.75 17.742188 -11.328125 18.578125 -10.484375 C 19.421875 -9.648438 19.84375 -8.40625 19.84375 -6.75 L 19.84375 0 L 18.90625 0 L 18.90625 -6.6875 C 18.90625 -8.050781 18.578125 -9.097656 17.921875 -9.828125 C 17.265625 -10.554688 16.363281 -10.921875 15.21875 -10.921875 C 14.03125 -10.921875 13.070312 -10.507812 12.34375 -9.6875 C 11.625 -8.875 11.265625 -7.6875 11.265625 -6.125 L 11.265625 0 L 10.328125 0 L 10.328125 -6.6875 C 10.328125 -8.050781 10 -9.097656 9.34375 -9.828125 C 8.6875 -10.554688 7.785156 -10.921875 6.640625 -10.921875 C 5.453125 -10.921875 4.492188 -10.507812 3.765625 -9.6875 C 3.046875 -8.875 2.6875 -7.6875 2.6875 -6.125 L 2.6875 0 L 1.734375 0 L 1.734375 -11.515625 L 2.6875 -11.515625 L 2.6875 -9.015625 C 3.019531 -9.921875 3.550781 -10.601562 4.28125 -11.0625 C 5.007812 -11.519531 5.847656 -11.75 6.796875 -11.75 C 7.835938 -11.75 8.734375 -11.476562 9.484375 -10.9375 C 10.242188 -10.394531 10.769531 -9.59375 11.0625 -8.53125 C 11.320312 -9.59375 11.84375 -10.394531 12.625 -10.9375 C 13.40625 -11.476562 14.316406 -11.75 15.359375 -11.75 Z M 15.359375 -11.75 "/></g></g><g style="fill:#d9d9d9;fill-opacity:1;"><g transform="translate(28.933327, 98.317321)"><path style="stroke:none" d="M 1.140625 -5.765625 C 1.140625 -6.953125 1.375 -7.992188 1.84375 -8.890625 C 2.320312 -9.785156 2.984375 -10.472656 3.828125 -10.953125 C 4.671875 -11.429688 5.628906 -11.671875 6.703125 -11.671875 C 7.921875 -11.671875 8.953125 -11.375 9.796875 -10.78125 C 10.648438 -10.1875 11.242188 -9.429688 11.578125 -8.515625 L 11.578125 -11.515625 L 12.546875 -11.515625 L 12.546875 0 L 11.578125 0 L 11.578125 -3.03125 C 11.242188 -2.101562 10.648438 -1.335938 9.796875 -0.734375 C 8.941406 -0.128906 7.910156 0.171875 6.703125 0.171875 C 5.628906 0.171875 4.671875 -0.0703125 3.828125 -0.5625 C 2.984375 -1.050781 2.320312 -1.742188 1.84375 -2.640625 C 1.375 -3.535156 1.140625 -4.578125 1.140625 -5.765625 Z M 11.578125 -5.765625 C 11.578125 -6.773438 11.367188 -7.664062 10.953125 -8.4375 C 10.535156 -9.207031 9.96875 -9.800781 9.25 -10.21875 C 8.53125 -10.632812 7.722656 -10.84375 6.828125 -10.84375 C 5.898438 -10.84375 5.082031 -10.640625 4.375 -10.234375 C 3.664062 -9.835938 3.113281 -9.253906 2.71875 -8.484375 C 2.320312 -7.722656 2.125 -6.816406 2.125 -5.765625 C 2.125 -4.722656 2.320312 -3.816406 2.71875 -3.046875 C 3.113281 -2.285156 3.664062 -1.695312 4.375 -1.28125 C 5.09375 -0.875 5.910156 -0.671875 6.828125 -0.671875 C 7.722656 -0.671875 8.535156 -0.878906 9.265625 -1.296875 C 9.992188 -1.722656 10.5625 -2.320312 10.96875 -3.09375 C 11.375 -3.863281 11.578125 -4.753906 11.578125 -5.765625 Z M 11.578125 -5.765625 "/></g></g><g style="fill:#d9d9d9;fill-opacity:1;"><g transform="translate(42.404665, 98.317321)"><path style="stroke:none" d="M 2.6875 -9.140625 C 2.976562 -9.992188 3.484375 -10.640625 4.203125 -11.078125 C 4.921875 -11.523438 5.835938 -11.75 6.953125 -11.75 L 6.953125 -10.765625 L 6.640625 -10.765625 C 5.503906 -10.765625 4.5625 -10.441406 3.8125 -9.796875 C 3.0625 -9.148438 2.6875 -8.097656 2.6875 -6.640625 L 2.6875 0 L 1.734375 0 L 1.734375 -11.515625 L 2.6875 -11.515625 Z M 2.6875 -9.140625 "/></g></g><g style="fill:#d9d9d9;fill-opacity:1;"><g transform="translate(49.023542, 98.317321)"><path style="stroke:none" d="M 7.71875 0 L 2.6875 -5.28125 L 2.6875 0 L 1.734375 0 L 1.734375 -15.703125 L 2.6875 -15.703125 L 2.6875 -6.296875 L 7.640625 -11.515625 L 8.96875 -11.515625 L 3.390625 -5.796875 L 9.046875 0 Z M 7.71875 0 "/></g></g><g style="fill:#d9d9d9;fill-opacity:1;"><g transform="translate(57.488129, 98.317321)"><path style="stroke:none" d="M 12.109375 -6.53125 C 12.109375 -6.019531 12.097656 -5.640625 12.078125 -5.390625 L 2.125 -5.390625 C 2.15625 -4.359375 2.378906 -3.488281 2.796875 -2.78125 C 3.222656 -2.070312 3.78125 -1.539062 4.46875 -1.1875 C 5.164062 -0.832031 5.925781 -0.65625 6.75 -0.65625 C 7.875 -0.65625 8.816406 -0.929688 9.578125 -1.484375 C 10.347656 -2.046875 10.832031 -2.8125 11.03125 -3.78125 L 12.03125 -3.78125 C 11.800781 -2.601562 11.21875 -1.648438 10.28125 -0.921875 C 9.351562 -0.191406 8.175781 0.171875 6.75 0.171875 C 5.675781 0.171875 4.710938 -0.0664062 3.859375 -0.546875 C 3.015625 -1.023438 2.347656 -1.710938 1.859375 -2.609375 C 1.378906 -3.515625 1.140625 -4.566406 1.140625 -5.765625 C 1.140625 -6.972656 1.375 -8.019531 1.84375 -8.90625 C 2.320312 -9.800781 2.984375 -10.484375 3.828125 -10.953125 C 4.679688 -11.429688 5.65625 -11.671875 6.75 -11.671875 C 7.851562 -11.671875 8.8125 -11.429688 9.625 -10.953125 C 10.4375 -10.484375 11.050781 -9.851562 11.46875 -9.0625 C 11.894531 -8.28125 12.109375 -7.4375 12.109375 -6.53125 Z M 11.15625 -6.171875 C 11.195312 -7.191406 11.015625 -8.054688 10.609375 -8.765625 C 10.210938 -9.472656 9.664062 -10 8.96875 -10.34375 C 8.28125 -10.6875 7.53125 -10.859375 6.71875 -10.859375 C 5.914062 -10.859375 5.171875 -10.6875 4.484375 -10.34375 C 3.796875 -10 3.238281 -9.472656 2.8125 -8.765625 C 2.382812 -8.054688 2.15625 -7.191406 2.125 -6.171875 Z M 11.15625 -6.171875 "/></g></g><g style="fill:#d9d9d9;fill-opacity:1;"><g transform="translate(69.941142, 98.317321)"><path style="stroke:none" d="M 3.15625 -10.6875 L 3.15625 -3.078125 C 3.15625 -2.222656 3.3125 -1.632812 3.625 -1.3125 C 3.9375 -1 4.488281 -0.84375 5.28125 -0.84375 L 6.578125 -0.84375 L 6.578125 0 L 5.140625 0 C 4.128906 0 3.382812 -0.234375 2.90625 -0.703125 C 2.4375 -1.179688 2.203125 -1.972656 2.203125 -3.078125 L 2.203125 -10.6875 L 0.46875 -10.6875 L 0.46875 -11.515625 L 2.203125 -11.515625 L 2.203125 -14.453125 L 3.15625 -14.453125 L 3.15625 -11.515625 L 6.578125 -11.515625 L 6.578125 -10.6875 Z M 3.15625 -10.6875 "/></g></g><g style="fill:#d9d9d9;fill-opacity:1;"><g transform="translate(76.496379, 98.317321)"><path style="stroke:none" d="M 2.234375 -14.09375 C 2.003906 -14.09375 1.8125 -14.164062 1.65625 -14.3125 C 1.5 -14.457031 1.421875 -14.660156 1.421875 -14.921875 C 1.421875 -15.160156 1.5 -15.359375 1.65625 -15.515625 C 1.8125 -15.671875 2.003906 -15.75 2.234375 -15.75 C 2.453125 -15.75 2.640625 -15.671875 2.796875 -15.515625 C 2.953125 -15.359375 3.03125 -15.160156 3.03125 -14.921875 C 3.03125 -14.660156 2.953125 -14.457031 2.796875 -14.3125 C 2.640625 -14.164062 2.453125 -14.09375 2.234375 -14.09375 Z M 2.6875 -11.515625 L 2.6875 0 L 1.734375 0 L 1.734375 -11.515625 Z M 2.6875 -11.515625 "/></g></g><g style="fill:#d9d9d9;fill-opacity:1;"><g transform="translate(80.145155, 98.317321)"><path style="stroke:none" d="M 6.9375 -11.75 C 8.3125 -11.75 9.425781 -11.328125 10.28125 -10.484375 C 11.144531 -9.648438 11.578125 -8.40625 11.578125 -6.75 L 11.578125 0 L 10.65625 0 L 10.65625 -6.6875 C 10.65625 -8.050781 10.304688 -9.097656 9.609375 -9.828125 C 8.921875 -10.554688 7.984375 -10.921875 6.796875 -10.921875 C 5.546875 -10.921875 4.546875 -10.523438 3.796875 -9.734375 C 3.054688 -8.941406 2.6875 -7.769531 2.6875 -6.21875 L 2.6875 0 L 1.734375 0 L 1.734375 -11.515625 L 2.6875 -11.515625 L 2.6875 -9.078125 C 3.019531 -9.941406 3.5625 -10.601562 4.3125 -11.0625 C 5.070312 -11.519531 5.945312 -11.75 6.9375 -11.75 Z M 6.9375 -11.75 "/></g></g><g style="fill:#d9d9d9;fill-opacity:1;"><g transform="translate(92.55574, 98.317321)"><path style="stroke:none" d="M 6.703125 -11.671875 C 7.921875 -11.671875 8.953125 -11.375 9.796875 -10.78125 C 10.648438 -10.195312 11.242188 -9.445312 11.578125 -8.53125 L 11.578125 -11.515625 L 12.546875 -11.515625 L 12.546875 0.359375 C 12.546875 1.421875 12.3125 2.347656 11.84375 3.140625 C 11.375 3.941406 10.742188 4.554688 9.953125 4.984375 C 9.160156 5.421875 8.273438 5.640625 7.296875 5.640625 C 5.859375 5.640625 4.664062 5.289062 3.71875 4.59375 C 2.769531 3.90625 2.144531 2.972656 1.84375 1.796875 L 2.796875 1.796875 C 3.078125 2.722656 3.609375 3.457031 4.390625 4 C 5.171875 4.539062 6.140625 4.8125 7.296875 4.8125 C 8.109375 4.8125 8.835938 4.628906 9.484375 4.265625 C 10.128906 3.910156 10.640625 3.394531 11.015625 2.71875 C 11.390625 2.050781 11.578125 1.265625 11.578125 0.359375 L 11.578125 -3.015625 C 11.242188 -2.097656 10.648438 -1.335938 9.796875 -0.734375 C 8.941406 -0.128906 7.910156 0.171875 6.703125 0.171875 C 5.628906 0.171875 4.671875 -0.0703125 3.828125 -0.5625 C 2.984375 -1.050781 2.320312 -1.742188 1.84375 -2.640625 C 1.375 -3.535156 1.140625 -4.578125 1.140625 -5.765625 C 1.140625 -6.953125 1.375 -7.992188 1.84375 -8.890625 C 2.320312 -9.785156 2.984375 -10.472656 3.828125 -10.953125 C 4.671875 -11.429688 5.628906 -11.671875 6.703125 -11.671875 Z M 11.578125 -5.765625 C 11.578125 -6.773438 11.367188 -7.664062 10.953125 -8.4375 C 10.535156 -9.207031 9.96875 -9.800781 9.25 -10.21875 C 8.53125 -10.632812 7.722656 -10.84375 6.828125 -10.84375 C 5.898438 -10.84375 5.082031 -10.640625 4.375 -10.234375 C 3.664062 -9.835938 3.113281 -9.253906 2.71875 -8.484375 C 2.320312 -7.722656 2.125 -6.816406 2.125 -5.765625 C 2.125 -4.722656 2.320312 -3.816406 2.71875 -3.046875 C 3.113281 -2.285156 3.664062 -1.695312 4.375 -1.28125 C 5.09375 -0.875 5.910156 -0.671875 6.828125 -0.671875 C 7.722656 -0.671875 8.535156 -0.878906 9.265625 -1.296875 C 9.992188 -1.722656 10.5625 -2.320312 10.96875 -3.09375 C 11.375 -3.863281 11.578125 -4.753906 11.578125 -5.765625 Z M 11.578125 -5.765625 "/></g></g><g style="fill:#d9d9d9;fill-opacity:1;"><g transform="translate(106.027078, 98.317321)"><path style="stroke:none" d=""/></g></g><g style="fill:#d9d9d9;fill-opacity:1;"><g transform="translate(111.20334, 98.317321)"><path style="stroke:none" d="M 3.15625 -10.6875 L 3.15625 -3.078125 C 3.15625 -2.222656 3.3125 -1.632812 3.625 -1.3125 C 3.9375 -1 4.488281 -0.84375 5.28125 -0.84375 L 6.578125 -0.84375 L 6.578125 0 L 5.140625 0 C 4.128906 0 3.382812 -0.234375 2.90625 -0.703125 C 2.4375 -1.179688 2.203125 -1.972656 2.203125 -3.078125 L 2.203125 -10.6875 L 0.46875 -10.6875 L 0.46875 -11.515625 L 2.203125 -11.515625 L 2.203125 -14.453125 L 3.15625 -14.453125 L 3.15625 -11.515625 L 6.578125 -11.515625 L 6.578125 -10.6875 Z M 3.15625 -10.6875 "/></g></g><g style="fill:#d9d9d9;fill-opacity:1;"><g transform="translate(117.758577, 98.317321)"><path style="stroke:none" d="M 6.953125 -11.75 C 8.316406 -11.75 9.425781 -11.328125 10.28125 -10.484375 C 11.144531 -9.648438 11.578125 -8.40625 11.578125 -6.75 L 11.578125 0 L 10.65625 0 L 10.65625 -6.6875 C 10.65625 -8.050781 10.304688 -9.097656 9.609375 -9.828125 C 8.921875 -10.554688 7.984375 -10.921875 6.796875 -10.921875 C 5.546875 -10.921875 4.546875 -10.523438 3.796875 -9.734375 C 3.054688 -8.941406 2.6875 -7.769531 2.6875 -6.21875 L 2.6875 0 L 1.734375 0 L 1.734375 -15.703125 L 2.6875 -15.703125 L 2.6875 -9.078125 C 3.019531 -9.941406 3.566406 -10.601562 4.328125 -11.0625 C 5.085938 -11.519531 5.960938 -11.75 6.953125 -11.75 Z M 6.953125 -11.75 "/></g></g><g style="fill:#d9d9d9;fill-opacity:1;"><g transform="translate(130.169163, 98.317321)"><path style="stroke:none" d="M 1.140625 -5.765625 C 1.140625 -6.953125 1.375 -7.992188 1.84375 -8.890625 C 2.320312 -9.785156 2.984375 -10.472656 3.828125 -10.953125 C 4.671875 -11.429688 5.628906 -11.671875 6.703125 -11.671875 C 7.921875 -11.671875 8.953125 -11.375 9.796875 -10.78125 C 10.648438 -10.1875 11.242188 -9.429688 11.578125 -8.515625 L 11.578125 -11.515625 L 12.546875 -11.515625 L 12.546875 0 L 11.578125 0 L 11.578125 -3.03125 C 11.242188 -2.101562 10.648438 -1.335938 9.796875 -0.734375 C 8.941406 -0.128906 7.910156 0.171875 6.703125 0.171875 C 5.628906 0.171875 4.671875 -0.0703125 3.828125 -0.5625 C 2.984375 -1.050781 2.320312 -1.742188 1.84375 -2.640625 C 1.375 -3.535156 1.140625 -4.578125 1.140625 -5.765625 Z M 11.578125 -5.765625 C 11.578125 -6.773438 11.367188 -7.664062 10.953125 -8.4375 C 10.535156 -9.207031 9.96875 -9.800781 9.25 -10.21875 C 8.53125 -10.632812 7.722656 -10.84375 6.828125 -10.84375 C 5.898438 -10.84375 5.082031 -10.640625 4.375 -10.234375 C 3.664062 -9.835938 3.113281 -9.253906 2.71875 -8.484375 C 2.320312 -7.722656 2.125 -6.816406 2.125 -5.765625 C 2.125 -4.722656 2.320312 -3.816406 2.71875 -3.046875 C 3.113281 -2.285156 3.664062 -1.695312 4.375 -1.28125 C 5.09375 -0.875 5.910156 -0.671875 6.828125 -0.671875 C 7.722656 -0.671875 8.535156 -0.878906 9.265625 -1.296875 C 9.992188 -1.722656 10.5625 -2.320312 10.96875 -3.09375 C 11.375 -3.863281 11.578125 -4.753906 11.578125 -5.765625 Z M 11.578125 -5.765625 "/></g></g><g style="fill:#d9d9d9;fill-opacity:1;"><g transform="translate(143.6405, 98.317321)"><path style="stroke:none" d="M 3.15625 -10.6875 L 3.15625 -3.078125 C 3.15625 -2.222656 3.3125 -1.632812 3.625 -1.3125 C 3.9375 -1 4.488281 -0.84375 5.28125 -0.84375 L 6.578125 -0.84375 L 6.578125 0 L 5.140625 0 C 4.128906 0 3.382812 -0.234375 2.90625 -0.703125 C 2.4375 -1.179688 2.203125 -1.972656 2.203125 -3.078125 L 2.203125 -10.6875 L 0.46875 -10.6875 L 0.46875 -11.515625 L 2.203125 -11.515625 L 2.203125 -14.453125 L 3.15625 -14.453125 L 3.15625 -11.515625 L 6.578125 -11.515625 L 6.578125 -10.6875 Z M 3.15625 -10.6875 "/></g></g><g style="fill:#d9d9d9;fill-opacity:1;"><g transform="translate(150.195737, 98.317321)"><path style="stroke:none" d=""/></g></g><g style="fill:#d9d9d9;fill-opacity:1;"><g transform="translate(155.371999, 98.317321)"><path style="stroke:none" d="M 15.359375 -11.75 C 16.671875 -11.75 17.742188 -11.328125 18.578125 -10.484375 C 19.421875 -9.648438 19.84375 -8.40625 19.84375 -6.75 L 19.84375 0 L 18.90625 0 L 18.90625 -6.6875 C 18.90625 -8.050781 18.578125 -9.097656 17.921875 -9.828125 C 17.265625 -10.554688 16.363281 -10.921875 15.21875 -10.921875 C 14.03125 -10.921875 13.070312 -10.507812 12.34375 -9.6875 C 11.625 -8.875 11.265625 -7.6875 11.265625 -6.125 L 11.265625 0 L 10.328125 0 L 10.328125 -6.6875 C 10.328125 -8.050781 10 -9.097656 9.34375 -9.828125 C 8.6875 -10.554688 7.785156 -10.921875 6.640625 -10.921875 C 5.453125 -10.921875 4.492188 -10.507812 3.765625 -9.6875 C 3.046875 -8.875 2.6875 -7.6875 2.6875 -6.125 L 2.6875 0 L 1.734375 0 L 1.734375 -11.515625 L 2.6875 -11.515625 L 2.6875 -9.015625 C 3.019531 -9.921875 3.550781 -10.601562 4.28125 -11.0625 C 5.007812 -11.519531 5.847656 -11.75 6.796875 -11.75 C 7.835938 -11.75 8.734375 -11.476562 9.484375 -10.9375 C 10.242188 -10.394531 10.769531 -9.59375 11.0625 -8.53125 C 11.320312 -9.59375 11.84375 -10.394531 12.625 -10.9375 C 13.40625 -11.476562 14.316406 -11.75 15.359375 -11.75 Z M 15.359375 -11.75 "/></g></g><g style="fill:#d9d9d9;fill-opacity:1;"><g transform="translate(176.05643, 98.317321)"><path style="stroke:none" d="M 1.140625 -5.765625 C 1.140625 -6.953125 1.375 -7.992188 1.84375 -8.890625 C 2.320312 -9.785156 2.984375 -10.472656 3.828125 -10.953125 C 4.671875 -11.429688 5.628906 -11.671875 6.703125 -11.671875 C 7.921875 -11.671875 8.953125 -11.375 9.796875 -10.78125 C 10.648438 -10.1875 11.242188 -9.429688 11.578125 -8.515625 L 11.578125 -11.515625 L 12.546875 -11.515625 L 12.546875 0 L 11.578125 0 L 11.578125 -3.03125 C 11.242188 -2.101562 10.648438 -1.335938 9.796875 -0.734375 C 8.941406 -0.128906 7.910156 0.171875 6.703125 0.171875 C 5.628906 0.171875 4.671875 -0.0703125 3.828125 -0.5625 C 2.984375 -1.050781 2.320312 -1.742188 1.84375 -2.640625 C 1.375 -3.535156 1.140625 -4.578125 1.140625 -5.765625 Z M 11.578125 -5.765625 C 11.578125 -6.773438 11.367188 -7.664062 10.953125 -8.4375 C 10.535156 -9.207031 9.96875 -9.800781 9.25 -10.21875 C 8.53125 -10.632812 7.722656 -10.84375 6.828125 -10.84375 C 5.898438 -10.84375 5.082031 -10.640625 4.375 -10.234375 C 3.664062 -9.835938 3.113281 -9.253906 2.71875 -8.484375 C 2.320312 -7.722656 2.125 -6.816406 2.125 -5.765625 C 2.125 -4.722656 2.320312 -3.816406 2.71875 -3.046875 C 3.113281 -2.285156 3.664062 -1.695312 4.375 -1.28125 C 5.09375 -0.875 5.910156 -0.671875 6.828125 -0.671875 C 7.722656 -0.671875 8.535156 -0.878906 9.265625 -1.296875 C 9.992188 -1.722656 10.5625 -2.320312 10.96875 -3.09375 C 11.375 -3.863281 11.578125 -4.753906 11.578125 -5.765625 Z M 11.578125 -5.765625 "/></g></g><g style="fill:#d9d9d9;fill-opacity:1;"><g transform="translate(189.527768, 98.317321)"><path style="stroke:none" d="M 3.15625 -10.6875 L 3.15625 -3.078125 C 3.15625 -2.222656 3.3125 -1.632812 3.625 -1.3125 C 3.9375 -1 4.488281 -0.84375 5.28125 -0.84375 L 6.578125 -0.84375 L 6.578125 0 L 5.140625 0 C 4.128906 0 3.382812 -0.234375 2.90625 -0.703125 C 2.4375 -1.179688 2.203125 -1.972656 2.203125 -3.078125 L 2.203125 -10.6875 L 0.46875 -10.6875 L 0.46875 -11.515625 L 2.203125 -11.515625 L 2.203125 -14.453125 L 3.15625 -14.453125 L 3.15625 -11.515625 L 6.578125 -11.515625 L 6.578125 -10.6875 Z M 3.15625 -10.6875 "/></g></g><g style="fill:#d9d9d9;fill-opacity:1;"><g transform="translate(196.083004, 98.317321)"><path style="stroke:none" d="M 3.15625 -10.6875 L 3.15625 -3.078125 C 3.15625 -2.222656 3.3125 -1.632812 3.625 -1.3125 C 3.9375 -1 4.488281 -0.84375 5.28125 -0.84375 L 6.578125 -0.84375 L 6.578125 0 L 5.140625 0 C 4.128906 0 3.382812 -0.234375 2.90625 -0.703125 C 2.4375 -1.179688 2.203125 -1.972656 2.203125 -3.078125 L 2.203125 -10.6875 L 0.46875 -10.6875 L 0.46875 -11.515625 L 2.203125 -11.515625 L 2.203125 -14.453125 L 3.15625 -14.453125 L 3.15625 -11.515625 L 6.578125 -11.515625 L 6.578125 -10.6875 Z M 3.15625 -10.6875 "/></g></g><g style="fill:#d9d9d9;fill-opacity:1;"><g transform="translate(202.638241, 98.317321)"><path style="stroke:none" d="M 12.109375 -6.53125 C 12.109375 -6.019531 12.097656 -5.640625 12.078125 -5.390625 L 2.125 -5.390625 C 2.15625 -4.359375 2.378906 -3.488281 2.796875 -2.78125 C 3.222656 -2.070312 3.78125 -1.539062 4.46875 -1.1875 C 5.164062 -0.832031 5.925781 -0.65625 6.75 -0.65625 C 7.875 -0.65625 8.816406 -0.929688 9.578125 -1.484375 C 10.347656 -2.046875 10.832031 -2.8125 11.03125 -3.78125 L 12.03125 -3.78125 C 11.800781 -2.601562 11.21875 -1.648438 10.28125 -0.921875 C 9.351562 -0.191406 8.175781 0.171875 6.75 0.171875 C 5.675781 0.171875 4.710938 -0.0664062 3.859375 -0.546875 C 3.015625 -1.023438 2.347656 -1.710938 1.859375 -2.609375 C 1.378906 -3.515625 1.140625 -4.566406 1.140625 -5.765625 C 1.140625 -6.972656 1.375 -8.019531 1.84375 -8.90625 C 2.320312 -9.800781 2.984375 -10.484375 3.828125 -10.953125 C 4.679688 -11.429688 5.65625 -11.671875 6.75 -11.671875 C 7.851562 -11.671875 8.8125 -11.429688 9.625 -10.953125 C 10.4375 -10.484375 11.050781 -9.851562 11.46875 -9.0625 C 11.894531 -8.28125 12.109375 -7.4375 12.109375 -6.53125 Z M 11.15625 -6.171875 C 11.195312 -7.191406 11.015625 -8.054688 10.609375 -8.765625 C 10.210938 -9.472656 9.664062 -10 8.96875 -10.34375 C 8.28125 -10.6875 7.53125 -10.859375 6.71875 -10.859375 C 5.914062 -10.859375 5.171875 -10.6875 4.484375 -10.34375 C 3.796875 -10 3.238281 -9.472656 2.8125 -8.765625 C 2.382812 -8.054688 2.15625 -7.191406 2.125 -6.171875 Z M 11.15625 -6.171875 "/></g></g><g style="fill:#d9d9d9;fill-opacity:1;"><g transform="translate(215.091254, 98.317321)"><path style="stroke:none" d="M 2.6875 -9.140625 C 2.976562 -9.992188 3.484375 -10.640625 4.203125 -11.078125 C 4.921875 -11.523438 5.835938 -11.75 6.953125 -11.75 L 6.953125 -10.765625 L 6.640625 -10.765625 C 5.503906 -10.765625 4.5625 -10.441406 3.8125 -9.796875 C 3.0625 -9.148438 2.6875 -8.097656 2.6875 -6.640625 L 2.6875 0 L 1.734375 0 L 1.734375 -11.515625 L 2.6875 -11.515625 Z M 2.6875 -9.140625 "/></g></g><g style="fill:#d9d9d9;fill-opacity:1;"><g transform="translate(221.710132, 98.317321)"><path style="stroke:none" d="M 5.578125 0.171875 C 4.296875 0.171875 3.242188 -0.109375 2.421875 -0.671875 C 1.609375 -1.242188 1.15625 -2.050781 1.0625 -3.09375 L 2.03125 -3.09375 C 2.101562 -2.34375 2.445312 -1.75 3.0625 -1.3125 C 3.675781 -0.875 4.515625 -0.65625 5.578125 -0.65625 C 6.453125 -0.65625 7.144531 -0.878906 7.65625 -1.328125 C 8.175781 -1.773438 8.4375 -2.320312 8.4375 -2.96875 C 8.4375 -3.425781 8.300781 -3.796875 8.03125 -4.078125 C 7.757812 -4.367188 7.414062 -4.59375 7 -4.75 C 6.59375 -4.90625 6.035156 -5.078125 5.328125 -5.265625 C 4.472656 -5.492188 3.785156 -5.71875 3.265625 -5.9375 C 2.742188 -6.15625 2.296875 -6.484375 1.921875 -6.921875 C 1.554688 -7.359375 1.375 -7.941406 1.375 -8.671875 C 1.375 -9.210938 1.535156 -9.710938 1.859375 -10.171875 C 2.191406 -10.628906 2.644531 -10.992188 3.21875 -11.265625 C 3.800781 -11.535156 4.460938 -11.671875 5.203125 -11.671875 C 6.398438 -11.671875 7.367188 -11.367188 8.109375 -10.765625 C 8.859375 -10.160156 9.257812 -9.332031 9.3125 -8.28125 L 8.359375 -8.28125 C 8.316406 -9.039062 8.019531 -9.660156 7.46875 -10.140625 C 6.914062 -10.617188 6.148438 -10.859375 5.171875 -10.859375 C 4.359375 -10.859375 3.679688 -10.644531 3.140625 -10.21875 C 2.597656 -9.800781 2.328125 -9.285156 2.328125 -8.671875 C 2.328125 -8.140625 2.476562 -7.707031 2.78125 -7.375 C 3.09375 -7.039062 3.46875 -6.785156 3.90625 -6.609375 C 4.351562 -6.429688 4.945312 -6.242188 5.6875 -6.046875 C 6.488281 -5.835938 7.132812 -5.628906 7.625 -5.421875 C 8.113281 -5.210938 8.523438 -4.914062 8.859375 -4.53125 C 9.203125 -4.144531 9.375 -3.625 9.375 -2.96875 C 9.375 -2.375 9.210938 -1.835938 8.890625 -1.359375 C 8.566406 -0.878906 8.113281 -0.503906 7.53125 -0.234375 C 6.945312 0.0351562 6.296875 0.171875 5.578125 0.171875 Z M 5.578125 0.171875 "/></g></g></g></svg>