<svg xmlns="http://www.w3.org/2000/svg" xmlns:xlink="http://www.w3.org/1999/xlink" width="500" zoomAndPan="magnify" viewBox="0 0 375 374.999991" height="500" preserveAspectRatio="xMidYMid meet" version="1.2"><defs><clipPath id="85f5d66a03"><path d="M 32 17 L 345.875 17 L 345.875 287 L 32 287 Z M 32 17 "/></clipPath></defs><g id="62af518ed2"><path style=" stroke:none;fill-rule:nonzero;fill:#caddff;fill-opacity:1;" d="M 46.257812 115.011719 C 39.511719 130.089844 29.527344 158.949219 33.542969 194.851562 C 38.691406 240.914062 64.179688 277.226562 88.976562 297.632812 C 171.257812 365.347656 321.886719 321.601562 341.832031 257.816406 C 345.449219 246.246094 344.433594 235.085938 343.183594 221.351562 C 339.199219 177.671875 318.226562 164.691406 304.117188 118.3125 C 291.28125 76.105469 303.941406 71.355469 291.9375 52.59375 C 265.898438 11.890625 190.730469 9.839844 139.011719 29.351562 C 119.148438 36.847656 70.941406 59.839844 46.257812 115.011719 "/><g clip-rule="nonzero" clip-path="url(#85f5d66a03)"><path style=" stroke:none;fill-rule:nonzero;fill:#5479f7;fill-opacity:1;" d="M 342.183594 282.078125 L 339.414062 284.4375 C 337.855469 285.765625 334.839844 287.027344 332.832031 286.605469 L 32.054688 29.734375 C 32.023438 25.390625 34.292969 21.351562 38.023438 19.117188 C 40.671875 17.53125 43.820312 17 46.84375 17.628906 L 340.757812 78.929688 C 343.71875 79.546875 345.839844 82.152344 345.839844 85.175781 L 345.839844 274.167969 C 345.839844 277.210938 344.503906 280.101562 342.183594 282.078125 "/></g><path style=" stroke:none;fill-rule:nonzero;fill:#ffffff;fill-opacity:1;" d="M 333.214844 286.035156 L 40.03125 224.890625 C 35.480469 223.941406 32.222656 219.929688 32.222656 215.285156 L 32.222656 29.042969 C 32.222656 26.589844 34.476562 24.753906 36.878906 25.257812 L 330.84375 86.5625 C 333.796875 87.179688 335.921875 89.785156 335.921875 92.808594 L 335.921875 283.835938 C 335.921875 285.261719 334.609375 286.328125 333.214844 286.035156 "/><path style=" stroke:none;fill-rule:nonzero;fill:#000000;fill-opacity:1;" d="M 333.675781 286.652344 C 333.484375 286.652344 333.289062 286.632812 333.097656 286.589844 L 160.328125 250.558594 C 160.019531 250.496094 159.820312 250.195312 159.886719 249.886719 C 159.953125 249.578125 160.25 249.382812 160.558594 249.445312 L 333.332031 285.476562 C 333.828125 285.582031 334.335938 285.457031 334.730469 285.136719 C 335.125 284.820312 335.351562 284.34375 335.351562 283.835938 L 335.351562 92.808594 C 335.351562 90.070312 333.40625 87.679688 330.722656 87.117188 L 326.394531 86.214844 C 326.082031 86.152344 325.886719 85.851562 325.949219 85.542969 C 326.015625 85.234375 326.316406 85.039062 326.625 85.101562 L 330.957031 86.007812 C 334.160156 86.675781 336.488281 89.535156 336.488281 92.808594 L 336.488281 283.835938 C 336.488281 284.6875 336.113281 285.484375 335.449219 286.019531 C 334.941406 286.433594 334.316406 286.652344 333.675781 286.652344 "/><path style=" stroke:none;fill-rule:nonzero;fill:#000000;fill-opacity:1;" d="M 32.664062 145.640625 C 32.351562 145.640625 32.097656 145.386719 32.097656 145.074219 L 31.652344 29.046875 C 31.652344 27.699219 32.25 26.449219 33.289062 25.601562 C 34.332031 24.753906 35.679688 24.425781 36.996094 24.699219 L 293.488281 78.195312 C 293.800781 78.257812 293.996094 78.558594 293.933594 78.867188 C 293.867188 79.171875 293.566406 79.371094 293.257812 79.308594 L 36.765625 25.8125 C 35.785156 25.609375 34.78125 25.855469 34.007812 26.484375 C 33.234375 27.113281 32.789062 28.046875 32.789062 29.042969 L 33.234375 145.070312 C 33.234375 145.382812 32.980469 145.636719 32.667969 145.640625 C 32.667969 145.640625 32.667969 145.640625 32.664062 145.640625 "/><path style=" stroke:none;fill-rule:nonzero;fill:#5479f7;fill-opacity:1;" d="M 183.644531 233.445312 L 183.644531 240.726562 L 255.011719 255.164062 L 255.011719 247.882812 L 183.644531 233.445312 "/><path style=" stroke:none;fill-rule:nonzero;fill:#5479f7;fill-opacity:1;" d="M 185.472656 234.382812 C 185.230469 234.382812 185 234.464844 184.808594 234.617188 C 184.5625 234.820312 184.421875 235.117188 184.421875 235.433594 L 184.421875 239.40625 C 184.421875 239.902344 184.773438 240.335938 185.261719 240.433594 L 304.539062 264.929688 C 304.847656 264.992188 305.167969 264.914062 305.414062 264.714844 C 305.660156 264.511719 305.800781 264.214844 305.800781 263.898438 L 305.800781 259.925781 C 305.800781 259.429688 305.445312 258.996094 304.960938 258.894531 L 185.683594 234.402344 C 185.613281 234.390625 185.542969 234.382812 185.472656 234.382812 Z M 304.75 266.089844 C 304.605469 266.089844 304.457031 266.074219 304.308594 266.042969 L 185.03125 241.550781 C 184.019531 241.339844 183.28125 240.4375 183.28125 239.40625 L 183.28125 235.433594 C 183.28125 234.773438 183.574219 234.152344 184.085938 233.738281 C 184.601562 233.320312 185.261719 233.15625 185.914062 233.289062 L 305.1875 257.78125 C 306.203125 257.988281 306.9375 258.890625 306.9375 259.925781 L 306.9375 263.898438 C 306.9375 264.558594 306.644531 265.179688 306.132812 265.597656 C 305.738281 265.917969 305.25 266.089844 304.75 266.089844 "/><path style=" stroke:none;fill-rule:nonzero;fill:#5479f7;fill-opacity:1;" d="M 183.644531 218.1875 L 183.644531 225.46875 L 296.675781 248.566406 L 296.675781 241.285156 L 183.644531 218.1875 "/><path style=" stroke:none;fill-rule:nonzero;fill:#5479f7;fill-opacity:1;" d="M 185.472656 219.125 C 185.230469 219.125 185 219.207031 184.808594 219.359375 C 184.5625 219.5625 184.421875 219.859375 184.421875 220.175781 L 184.421875 224.148438 C 184.421875 224.644531 184.773438 225.078125 185.261719 225.179688 L 304.539062 249.671875 C 304.847656 249.734375 305.167969 249.65625 305.414062 249.457031 C 305.660156 249.257812 305.800781 248.960938 305.800781 248.640625 L 305.800781 244.667969 C 305.800781 244.171875 305.445312 243.738281 304.960938 243.636719 L 185.683594 219.144531 C 185.613281 219.128906 185.542969 219.125 185.472656 219.125 Z M 304.75 250.832031 C 304.605469 250.832031 304.457031 250.816406 304.308594 250.785156 L 185.03125 226.292969 C 184.019531 226.085938 183.28125 225.183594 183.28125 224.148438 L 183.28125 220.175781 C 183.28125 219.515625 183.574219 218.898438 184.085938 218.480469 C 184.601562 218.0625 185.261719 217.898438 185.914062 218.03125 L 305.1875 242.523438 C 306.203125 242.730469 306.9375 243.632812 306.9375 244.667969 L 306.9375 248.640625 C 306.9375 249.304688 306.644531 249.921875 306.132812 250.339844 C 305.738281 250.660156 305.25 250.832031 304.75 250.832031 "/><path style=" stroke:none;fill-rule:nonzero;fill:#5479f7;fill-opacity:1;" d="M 183.644531 202.929688 L 183.644531 210.210938 L 266.5625 227.125 L 266.5625 219.839844 L 183.644531 202.929688 "/><path style=" stroke:none;fill-rule:nonzero;fill:#5479f7;fill-opacity:1;" d="M 185.472656 203.867188 C 185.230469 203.867188 185 203.949219 184.808594 204.105469 C 184.5625 204.304688 184.421875 204.601562 184.421875 204.917969 L 184.421875 208.890625 C 184.421875 209.386719 184.773438 209.820312 185.261719 209.917969 L 304.539062 234.414062 C 304.847656 234.480469 305.167969 234.398438 305.414062 234.199219 C 305.660156 234 305.800781 233.699219 305.800781 233.382812 L 305.800781 229.410156 C 305.800781 228.914062 305.445312 228.480469 304.960938 228.378906 L 185.683594 203.886719 C 185.613281 203.875 185.542969 203.867188 185.472656 203.867188 Z M 304.75 235.574219 C 304.605469 235.574219 304.457031 235.558594 304.308594 235.527344 L 185.03125 211.035156 C 184.019531 210.824219 183.28125 209.921875 183.28125 208.890625 L 183.28125 204.917969 C 183.28125 204.257812 183.574219 203.640625 184.085938 203.222656 C 184.601562 202.804688 185.261719 202.640625 185.914062 202.773438 L 305.1875 227.265625 C 306.203125 227.472656 306.9375 228.375 306.9375 229.410156 L 306.9375 233.382812 C 306.9375 234.042969 306.644531 234.664062 306.132812 235.082031 C 305.738281 235.402344 305.25 235.574219 304.75 235.574219 "/><path style=" stroke:none;fill-rule:nonzero;fill:#5479f7;fill-opacity:1;" d="M 183.644531 187.675781 L 183.644531 194.953125 L 240.984375 206.507812 L 240.984375 199.222656 L 183.644531 187.675781 "/><path style=" stroke:none;fill-rule:nonzero;fill:#5479f7;fill-opacity:1;" d="M 185.472656 188.609375 C 185.230469 188.609375 185 188.691406 184.808594 188.84375 C 184.5625 189.046875 184.421875 189.34375 184.421875 189.660156 L 184.421875 193.632812 C 184.421875 194.128906 184.773438 194.5625 185.261719 194.664062 L 304.539062 219.15625 C 304.847656 219.21875 305.167969 219.140625 305.414062 218.941406 C 305.660156 218.742188 305.800781 218.441406 305.800781 218.125 L 305.800781 214.152344 C 305.800781 213.65625 305.445312 213.222656 304.960938 213.121094 L 185.683594 188.628906 C 185.613281 188.613281 185.542969 188.609375 185.472656 188.609375 Z M 304.75 220.316406 C 304.605469 220.316406 304.457031 220.300781 304.308594 220.269531 L 185.03125 195.777344 C 184.019531 195.570312 183.28125 194.664062 183.28125 193.632812 L 183.28125 189.660156 C 183.28125 189 183.574219 188.382812 184.085938 187.964844 C 184.601562 187.546875 185.261719 187.382812 185.914062 187.515625 L 305.1875 212.007812 C 306.203125 212.214844 306.9375 213.117188 306.9375 214.152344 L 306.9375 218.125 C 306.9375 218.785156 306.644531 219.40625 306.132812 219.824219 C 305.738281 220.144531 305.25 220.316406 304.75 220.316406 "/><path style=" stroke:none;fill-rule:nonzero;fill:#99b9ff;fill-opacity:1;" d="M 297.828125 120.355469 L 297.828125 196.890625 C 297.828125 197.125 297.996094 197.332031 298.226562 197.378906 L 305.285156 198.808594 C 305.597656 198.875 305.886719 198.636719 305.882812 198.320312 L 305.671875 121.59375 C 305.667969 121.351562 305.5 121.148438 305.261719 121.105469 L 298.414062 119.863281 C 298.109375 119.808594 297.828125 120.042969 297.828125 120.355469 "/><path style=" stroke:none;fill-rule:nonzero;fill:#99b9ff;fill-opacity:1;" d="M 281.738281 130.664062 L 281.738281 193.589844 C 281.738281 193.828125 281.90625 194.03125 282.136719 194.078125 L 289.199219 195.511719 C 289.507812 195.574219 289.796875 195.335938 289.792969 195.023438 L 289.582031 131.902344 C 289.582031 131.660156 289.410156 131.457031 289.171875 131.414062 L 282.328125 130.171875 C 282.019531 130.117188 281.738281 130.351562 281.738281 130.664062 "/><path style=" stroke:none;fill-rule:nonzero;fill:#99b9ff;fill-opacity:1;" d="M 265.652344 138.910156 L 265.652344 190.292969 C 265.652344 190.527344 265.816406 190.734375 266.050781 190.78125 L 273.109375 192.214844 C 273.417969 192.277344 273.707031 192.039062 273.707031 191.722656 L 273.496094 140.152344 C 273.492188 139.910156 273.320312 139.703125 273.085938 139.660156 L 266.238281 138.421875 C 265.933594 138.367188 265.652344 138.597656 265.652344 138.910156 "/><path style=" stroke:none;fill-rule:nonzero;fill:#99b9ff;fill-opacity:1;" d="M 249.5625 145.921875 L 249.5625 186.992188 C 249.5625 187.230469 249.730469 187.433594 249.960938 187.480469 L 257.019531 188.914062 C 257.332031 188.976562 257.621094 188.738281 257.617188 188.421875 L 257.40625 147.160156 C 257.40625 146.917969 257.234375 146.714844 257 146.671875 L 250.148438 145.429688 C 249.84375 145.375 249.5625 145.609375 249.5625 145.921875 "/><path style=" stroke:none;fill-rule:nonzero;fill:#99b9ff;fill-opacity:1;" d="M 233.472656 151.695312 L 233.472656 183.695312 C 233.472656 183.929688 233.640625 184.132812 233.871094 184.183594 L 240.929688 185.617188 C 241.242188 185.675781 241.53125 185.441406 241.527344 185.125 L 241.316406 152.933594 C 241.316406 152.691406 241.144531 152.488281 240.910156 152.445312 L 234.058594 151.203125 C 233.753906 151.148438 233.472656 151.386719 233.472656 151.695312 "/><path style=" stroke:none;fill-rule:nonzero;fill:#99b9ff;fill-opacity:1;" d="M 217.382812 159.53125 L 217.382812 180.394531 C 217.382812 180.632812 217.550781 180.835938 217.785156 180.882812 L 224.839844 182.316406 C 225.148438 182.378906 225.441406 182.140625 225.4375 181.824219 L 225.234375 160.765625 C 225.230469 160.527344 225.058594 160.324219 224.824219 160.28125 L 217.972656 159.039062 C 217.667969 158.984375 217.382812 159.21875 217.382812 159.53125 "/><path style=" stroke:none;fill-rule:nonzero;fill:#99b9ff;fill-opacity:1;" d="M 218.203125 152.089844 C 217.949219 152.089844 217.71875 151.921875 217.652344 151.667969 C 217.570312 151.363281 217.75 151.050781 218.054688 150.972656 C 258.019531 140.5 289.082031 115.921875 303.539062 98.054688 C 303.734375 97.8125 304.09375 97.773438 304.335938 97.972656 C 304.582031 98.167969 304.621094 98.527344 304.421875 98.773438 C 301.023438 102.976562 291.3125 114.023438 274.699219 125.742188 C 257.386719 137.949219 238.429688 146.808594 218.34375 152.074219 C 218.296875 152.085938 218.25 152.089844 218.203125 152.089844 "/><path style=" stroke:none;fill-rule:nonzero;fill:#99b9ff;fill-opacity:1;" d="M 304.492188 103.773438 C 304.488281 103.773438 304.488281 103.773438 304.484375 103.773438 C 304.167969 103.769531 303.917969 103.511719 303.921875 103.199219 L 303.976562 97.949219 L 298.863281 97.777344 C 298.550781 97.769531 298.304688 97.503906 298.3125 97.191406 C 298.324219 96.875 298.585938 96.632812 298.902344 96.640625 L 304.570312 96.828125 C 304.882812 96.839844 305.125 97.09375 305.121094 97.402344 L 305.058594 103.210938 C 305.054688 103.523438 304.804688 103.773438 304.492188 103.773438 "/><path style=" stroke:none;fill-rule:nonzero;fill:#caddff;fill-opacity:1;" d="M 245.511719 113.140625 C 240.714844 113.140625 236.824219 109.253906 236.824219 104.453125 C 236.824219 99.65625 240.714844 95.765625 245.511719 95.765625 C 250.3125 95.765625 254.203125 99.65625 254.203125 104.453125 C 254.203125 109.253906 250.3125 113.140625 245.511719 113.140625 Z M 245.511719 82.957031 C 233.636719 82.957031 224.011719 92.582031 224.011719 104.453125 C 224.011719 116.328125 233.636719 125.949219 245.511719 125.949219 C 257.390625 125.949219 267.015625 116.328125 267.015625 104.453125 C 267.015625 92.582031 257.390625 82.957031 245.511719 82.957031 "/><path style=" stroke:none;fill-rule:nonzero;fill:#99b9ff;fill-opacity:1;" d="M 249.550781 83.34375 L 247.863281 96.097656 C 250.492188 96.832031 252.609375 98.769531 253.597656 101.28125 L 265.246094 95.914062 C 262.460938 89.480469 256.621094 84.683594 249.550781 83.34375 "/><path style=" stroke:none;fill-rule:nonzero;fill:#5479f7;fill-opacity:1;" d="M 253.597656 101.285156 C 253.984375 102.269531 254.203125 103.335938 254.203125 104.453125 C 254.203125 105.085938 254.132812 105.707031 254.003906 106.300781 L 266.839844 107.148438 C 266.953125 106.265625 267.015625 105.367188 267.015625 104.453125 C 267.015625 101.320312 266.339844 98.34375 265.132812 95.65625 L 253.597656 101.285156 "/><path style=" stroke:none;fill-rule:nonzero;fill:#ffffff;fill-opacity:1;" d="M 292.09375 82.714844 L 319.457031 88.609375 L 336.984375 66.105469 L 292.09375 82.714844 "/><path style=" stroke:none;fill-rule:nonzero;fill:#000000;fill-opacity:1;" d="M 294.121094 82.570312 L 319.226562 87.980469 L 335.308594 67.332031 Z M 319.457031 89.179688 C 319.417969 89.179688 319.378906 89.175781 319.335938 89.167969 L 291.972656 83.269531 C 291.722656 83.214844 291.542969 83.007812 291.527344 82.753906 C 291.507812 82.503906 291.65625 82.269531 291.894531 82.179688 L 336.785156 65.574219 C 337.023438 65.484375 337.292969 65.5625 337.445312 65.769531 C 337.59375 65.976562 337.589844 66.253906 337.433594 66.453125 L 319.90625 88.957031 C 319.796875 89.097656 319.628906 89.179688 319.457031 89.179688 "/><path style=" stroke:none;fill-rule:nonzero;fill:#99b9ff;fill-opacity:1;" d="M 306.34375 94.34375 L 301.910156 84.828125 L 326.117188 72.886719 L 306.71875 85.863281 L 312.4375 87.097656 L 306.34375 94.34375 "/><path style=" stroke:none;fill-rule:nonzero;fill:#000000;fill-opacity:1;" d="M 302.65625 85.09375 L 306.480469 93.296875 L 311.394531 87.457031 L 306.597656 86.417969 C 306.375 86.371094 306.203125 86.195312 306.160156 85.972656 C 306.117188 85.746094 306.210938 85.519531 306.402344 85.394531 L 318.613281 77.222656 Z M 306.34375 94.914062 C 306.320312 94.914062 306.292969 94.914062 306.269531 94.910156 C 306.074219 94.882812 305.910156 94.761719 305.828125 94.585938 L 301.390625 85.070312 C 301.261719 84.789062 301.378906 84.457031 301.65625 84.320312 L 325.863281 72.378906 C 326.128906 72.242188 326.457031 72.34375 326.605469 72.601562 C 326.757812 72.863281 326.679688 73.191406 326.429688 73.359375 L 308.152344 85.59375 L 312.558594 86.542969 C 312.753906 86.585938 312.910156 86.722656 312.976562 86.914062 C 313.039062 87.101562 313 87.308594 312.871094 87.464844 L 306.777344 94.710938 C 306.667969 94.839844 306.507812 94.914062 306.34375 94.914062 "/><path style=" stroke:none;fill-rule:nonzero;fill:#000000;fill-opacity:1;" d="M 306.496094 90.8125 C 306.488281 90.8125 306.480469 90.8125 306.46875 90.8125 C 306.179688 90.796875 305.953125 90.550781 305.96875 90.257812 L 306.191406 85.839844 C 306.203125 85.546875 306.441406 85.324219 306.742188 85.339844 C 307.035156 85.351562 307.261719 85.601562 307.246094 85.890625 L 307.023438 90.3125 C 307.007812 90.59375 306.777344 90.8125 306.496094 90.8125 "/><path style=" stroke:none;fill-rule:nonzero;fill:#caddff;fill-opacity:1;" d="M 41.121094 39.007812 L 170.652344 67.460938 L 170.238281 227.460938 L 40.328125 199.417969 L 41.121094 39.007812 "/><path style=" stroke:none;fill-rule:nonzero;fill:#99b9ff;fill-opacity:1;" d="M 62.300781 83.214844 C 62.300781 85.824219 60.179688 87.941406 57.566406 87.941406 C 54.953125 87.941406 52.832031 85.824219 52.832031 83.214844 C 52.832031 80.597656 54.953125 78.480469 57.566406 78.480469 C 60.179688 78.480469 62.300781 80.597656 62.300781 83.214844 "/><path style=" stroke:none;fill-rule:nonzero;fill:#99b9ff;fill-opacity:1;" d="M 62.125 100.210938 C 62.125 102.820312 60.007812 104.941406 57.394531 104.941406 C 54.777344 104.941406 52.660156 102.820312 52.660156 100.210938 C 52.660156 97.59375 54.777344 95.476562 57.394531 95.476562 C 60.007812 95.476562 62.125 97.59375 62.125 100.210938 "/><path style=" stroke:none;fill-rule:nonzero;fill:#99b9ff;fill-opacity:1;" d="M 62.125 118.085938 C 62.125 120.699219 60.007812 122.816406 57.390625 122.816406 C 54.777344 122.816406 52.660156 120.699219 52.660156 118.085938 C 52.660156 115.472656 54.777344 113.355469 57.390625 113.355469 C 60.007812 113.355469 62.125 115.472656 62.125 118.085938 "/><path style=" stroke:none;fill-rule:nonzero;fill:#99b9ff;fill-opacity:1;" d="M 61.601562 136.136719 C 61.601562 138.75 59.480469 140.867188 56.867188 140.867188 C 54.253906 140.867188 52.132812 138.75 52.132812 136.136719 C 52.132812 133.523438 54.253906 131.40625 56.867188 131.40625 C 59.480469 131.40625 61.601562 133.523438 61.601562 136.136719 "/><path style=" stroke:none;fill-rule:nonzero;fill:#99b9ff;fill-opacity:1;" d="M 61.777344 153.839844 C 61.777344 156.453125 59.65625 158.570312 57.042969 158.570312 C 54.429688 158.570312 52.308594 156.453125 52.308594 153.839844 C 52.308594 151.226562 54.429688 149.105469 57.042969 149.105469 C 59.65625 149.105469 61.777344 151.226562 61.777344 153.839844 "/><path style=" stroke:none;fill-rule:nonzero;fill:#99b9ff;fill-opacity:1;" d="M 61.777344 169.730469 C 61.777344 172.34375 59.65625 174.460938 57.042969 174.460938 C 54.429688 174.460938 52.308594 172.34375 52.308594 169.730469 C 52.308594 167.117188 54.429688 164.996094 57.042969 164.996094 C 59.65625 164.996094 61.777344 167.117188 61.777344 169.730469 "/><path style=" stroke:none;fill-rule:nonzero;fill:#99b9ff;fill-opacity:1;" d="M 68.984375 81.214844 L 152.75 100.0625 C 153.441406 100.21875 153.925781 100.832031 153.917969 101.539062 L 153.839844 107.714844 C 153.828125 108.664062 152.945312 109.359375 152.015625 109.15625 L 68.171875 90.316406 C 67.476562 90.160156 66.988281 89.535156 67.007812 88.820312 L 67.164062 82.636719 C 67.1875 81.695312 68.066406 81.007812 68.984375 81.214844 "/><path style=" stroke:none;fill-rule:nonzero;fill:#99b9ff;fill-opacity:1;" d="M 68.558594 150.25 L 152.453125 169.125 C 153.109375 169.273438 153.578125 169.863281 153.566406 170.535156 L 153.488281 176.84375 C 153.476562 177.753906 152.632812 178.421875 151.742188 178.222656 L 67.769531 159.351562 C 67.105469 159.203125 66.636719 158.605469 66.65625 157.921875 L 66.816406 151.609375 C 66.839844 150.707031 67.679688 150.050781 68.558594 150.25 "/><path style=" stroke:none;fill-rule:nonzero;fill:#99b9ff;fill-opacity:1;" d="M 139.691406 114.296875 L 69.496094 98.503906 C 68.3125 98.238281 67.179688 99.121094 67.148438 100.332031 L 67.015625 105.640625 C 66.992188 106.558594 67.621094 107.367188 68.519531 107.566406 L 138.847656 123.367188 C 140.050781 123.636719 141.191406 122.722656 141.191406 121.492188 L 141.191406 116.175781 C 141.191406 115.273438 140.570312 114.496094 139.691406 114.296875 "/><path style=" stroke:none;fill-rule:nonzero;fill:#99b9ff;fill-opacity:1;" d="M 143.476562 149.5 L 68.539062 132.640625 C 67.851562 132.484375 67.191406 132.996094 67.175781 133.703125 L 67 140.652344 C 66.984375 141.1875 67.351562 141.65625 67.871094 141.773438 L 142.984375 158.648438 C 143.683594 158.808594 144.347656 158.273438 144.347656 157.558594 L 144.347656 150.589844 C 144.347656 150.066406 143.984375 149.613281 143.476562 149.5 "/><path style=" stroke:none;fill-rule:nonzero;fill:#99b9ff;fill-opacity:1;" d="M 143.285156 184.160156 L 69.1875 167.488281 C 68.164062 167.257812 67.183594 168.019531 67.160156 169.066406 L 67.011719 174.90625 C 66.992188 175.699219 67.535156 176.398438 68.308594 176.570312 L 142.554688 193.253906 C 143.59375 193.484375 144.582031 192.695312 144.582031 191.628906 L 144.582031 185.78125 C 144.582031 185.003906 144.042969 184.328125 143.285156 184.160156 "/><path style=" stroke:none;fill-rule:nonzero;fill:#99b9ff;fill-opacity:1;" d="M 148.976562 133.832031 L 69.769531 116.011719 C 68.625 115.753906 67.53125 116.609375 67.503906 117.78125 L 67.367188 123.222656 C 67.34375 124.105469 67.949219 124.886719 68.816406 125.082031 L 148.160156 142.910156 C 149.324219 143.171875 150.425781 142.289062 150.425781 141.097656 L 150.425781 135.644531 C 150.425781 134.777344 149.824219 134.023438 148.976562 133.832031 "/><path style=" stroke:none;fill-rule:nonzero;fill:#99b9ff;fill-opacity:1;" d="M 87.578125 66.089844 L 126.347656 74.519531 C 128.1875 74.917969 129.496094 76.550781 129.484375 78.4375 L 129.476562 80.109375 C 129.460938 82.636719 127.128906 84.511719 124.660156 83.984375 L 85.878906 75.710938 C 84.027344 75.316406 82.707031 73.671875 82.726562 71.777344 L 82.742188 69.945312 C 82.769531 67.417969 85.105469 65.554688 87.578125 66.089844 "/><path style=" stroke:none;fill-rule:nonzero;fill:#ffffff;fill-opacity:1;" d="M 111.273438 307.753906 L 112.097656 315.609375 L 117.414062 316.230469 L 117.414062 306.917969 L 111.273438 307.753906 "/><path style=" stroke:none;fill-rule:nonzero;fill:#000000;fill-opacity:1;" d="M 112.617188 315.097656 L 116.84375 315.59375 L 116.84375 307.570312 L 111.898438 308.246094 Z M 117.414062 316.800781 C 117.390625 316.800781 117.367188 316.800781 117.34375 316.796875 L 112.03125 316.175781 C 111.769531 316.144531 111.5625 315.933594 111.535156 315.667969 L 110.710938 307.816406 C 110.675781 307.507812 110.894531 307.234375 111.199219 307.191406 L 117.335938 306.355469 C 117.496094 306.332031 117.664062 306.382812 117.785156 306.492188 C 117.910156 306.597656 117.980469 306.753906 117.980469 306.917969 L 117.980469 316.230469 C 117.980469 316.394531 117.910156 316.550781 117.789062 316.65625 C 117.683594 316.75 117.550781 316.800781 117.414062 316.800781 "/><path style=" stroke:none;fill-rule:nonzero;fill:#5479f7;fill-opacity:1;" d="M 118.25 329.90625 C 116.035156 330.214844 112.402344 330.492188 108.140625 329.902344 C 106.746094 329.707031 105.820312 328.351562 106.15625 326.984375 C 107.09375 323.171875 108.710938 315.9375 111.488281 312.585938 L 112.175781 314.40625 L 113.128906 312.691406 C 113.257812 312.457031 113.492188 312.300781 113.761719 312.265625 L 115.84375 312 C 116.28125 311.945312 116.6875 312.234375 116.777344 312.664062 L 117.109375 314.242188 L 117.835938 312.171875 L 120.261719 327.246094 C 120.429688 328.535156 119.535156 329.722656 118.25 329.90625 "/><path style=" stroke:none;fill-rule:nonzero;fill:#000000;fill-opacity:1;" d="M 111.324219 313.765625 C 109.167969 317.019531 107.773438 322.753906 106.910156 326.296875 L 106.707031 327.121094 C 106.585938 327.621094 106.675781 328.132812 106.964844 328.558594 C 107.253906 328.984375 107.710938 329.265625 108.21875 329.335938 C 112.378906 329.914062 115.925781 329.65625 118.167969 329.34375 C 119.140625 329.207031 119.828125 328.296875 119.695312 327.320312 L 117.628906 314.46875 C 117.535156 314.6875 117.308594 314.824219 117.070312 314.808594 C 116.816406 314.792969 116.605469 314.609375 116.550781 314.359375 L 116.21875 312.78125 C 116.191406 312.640625 116.054688 312.550781 115.917969 312.566406 L 113.832031 312.828125 C 113.746094 312.839844 113.667969 312.894531 113.625 312.96875 L 112.671875 314.683594 C 112.566406 314.875 112.351562 314.988281 112.136719 314.972656 C 111.914062 314.953125 111.722656 314.8125 111.644531 314.605469 Z M 113.226562 330.816406 C 111.664062 330.816406 109.921875 330.722656 108.0625 330.464844 C 107.238281 330.351562 106.492188 329.886719 106.027344 329.199219 C 105.558594 328.511719 105.40625 327.652344 105.605469 326.847656 L 105.804688 326.027344 C 106.765625 322.070312 108.378906 315.449219 111.046875 312.222656 C 111.175781 312.070312 111.378906 311.992188 111.582031 312.027344 C 111.78125 312.058594 111.945312 312.195312 112.019531 312.382812 L 112.273438 313.058594 L 112.632812 312.414062 C 112.847656 312.027344 113.246094 311.757812 113.6875 311.703125 L 115.773438 311.4375 C 116.378906 311.359375 116.957031 311.6875 117.21875 312.214844 L 117.296875 311.984375 C 117.386719 311.738281 117.632812 311.582031 117.886719 311.605469 C 118.144531 311.628906 118.355469 311.824219 118.398438 312.082031 L 120.824219 327.15625 C 121.035156 328.765625 119.914062 330.246094 118.328125 330.46875 C 117.015625 330.652344 115.273438 330.816406 113.226562 330.816406 "/><path style=" stroke:none;fill-rule:nonzero;fill:#000000;fill-opacity:1;" d="M 112.09375 328.289062 C 110.65625 328.289062 109.105469 328.164062 107.558594 327.808594 C 107.253906 327.742188 107.0625 327.4375 107.128906 327.128906 C 107.199219 326.824219 107.503906 326.632812 107.8125 326.703125 C 112.957031 327.871094 118.335938 326.367188 118.390625 326.351562 C 118.691406 326.265625 119.007812 326.4375 119.09375 326.742188 C 119.179688 327.042969 119.003906 327.359375 118.703125 327.445312 C 118.539062 327.492188 115.6875 328.289062 112.09375 328.289062 "/><path style=" stroke:none;fill-rule:nonzero;fill:#000000;fill-opacity:1;" d="M 110.824219 322.449219 C 110.519531 322.449219 110.269531 322.207031 110.257812 321.898438 C 110.246094 321.585938 110.492188 321.324219 110.808594 321.3125 L 115.789062 321.148438 C 116.117188 321.136719 116.363281 321.382812 116.375 321.699219 C 116.386719 322.011719 116.140625 322.277344 115.824219 322.285156 L 110.84375 322.449219 C 110.839844 322.449219 110.832031 322.449219 110.824219 322.449219 "/><path style=" stroke:none;fill-rule:nonzero;fill:#ffffff;fill-opacity:1;" d="M 136.15625 303.574219 L 136.953125 315.035156 L 143.347656 315.035156 L 143.644531 303.574219 L 136.15625 303.574219 "/><path style=" stroke:none;fill-rule:nonzero;fill:#000000;fill-opacity:1;" d="M 137.484375 314.46875 L 142.792969 314.46875 L 143.058594 304.144531 L 136.769531 304.144531 Z M 143.347656 315.605469 L 136.953125 315.605469 C 136.65625 315.605469 136.40625 315.371094 136.386719 315.074219 L 135.589844 303.613281 C 135.578125 303.457031 135.632812 303.300781 135.742188 303.1875 C 135.851562 303.070312 136 303.003906 136.160156 303.003906 L 143.644531 303.003906 C 143.796875 303.003906 143.945312 303.066406 144.050781 303.175781 C 144.160156 303.285156 144.214844 303.433594 144.210938 303.585938 L 143.914062 315.050781 C 143.90625 315.359375 143.65625 315.605469 143.347656 315.605469 "/><path style=" stroke:none;fill-rule:nonzero;fill:#5479f7;fill-opacity:1;" d="M 135.285156 321.507812 C 135.269531 322.589844 136.007812 323.542969 137.066406 323.789062 C 140.742188 324.640625 149.019531 326.546875 151.382812 326.898438 C 154.445312 327.351562 158.214844 326.414062 159.832031 324.621094 C 161.453125 322.832031 156.207031 318.554688 153.714844 316.996094 C 150.019531 314.683594 146.464844 310.109375 144.976562 309.90625 C 143.484375 309.703125 140.703125 314.019531 140.703125 314.019531 L 136.15625 312.109375 C 136.15625 312.109375 135.367188 316.007812 135.285156 321.507812 "/><path style=" stroke:none;fill-rule:nonzero;fill:#000000;fill-opacity:1;" d="M 135.851562 321.511719 C 135.839844 322.328125 136.40625 323.050781 137.195312 323.234375 C 140.699219 324.050781 149.109375 325.984375 151.464844 326.335938 C 154.40625 326.773438 157.972656 325.835938 159.410156 324.242188 C 159.5 324.140625 159.601562 323.980469 159.558594 323.664062 C 159.324219 322.007812 155.777344 318.957031 153.414062 317.476562 C 151.523438 316.292969 149.722656 314.589844 148.136719 313.082031 C 146.824219 311.835938 145.460938 310.546875 144.898438 310.46875 C 144.222656 310.375 142.40625 312.429688 141.183594 314.328125 C 141.03125 314.558594 140.738281 314.652344 140.484375 314.546875 L 136.59375 312.910156 C 136.371094 314.253906 135.914062 317.457031 135.851562 321.511719 Z M 152.972656 327.578125 C 152.40625 327.578125 151.84375 327.542969 151.296875 327.460938 C 148.902344 327.105469 140.457031 325.160156 136.9375 324.339844 C 135.628906 324.035156 134.695312 322.839844 134.714844 321.496094 C 134.796875 316.007812 135.566406 312.160156 135.601562 311.996094 C 135.636719 311.832031 135.742188 311.6875 135.890625 311.609375 C 136.042969 311.53125 136.222656 311.523438 136.378906 311.585938 L 140.488281 313.3125 C 141.40625 311.953125 143.507812 309.128906 145.054688 309.339844 C 145.9375 309.464844 147.042969 310.480469 148.921875 312.257812 C 150.46875 313.726562 152.222656 315.390625 154.019531 316.511719 C 155.636719 317.527344 160.332031 320.980469 160.683594 323.507812 C 160.765625 324.085938 160.617188 324.605469 160.253906 325.003906 C 158.839844 326.570312 155.859375 327.578125 152.972656 327.578125 "/><path style=" stroke:none;fill-rule:nonzero;fill:#000000;fill-opacity:1;" d="M 152.921875 325.46875 C 146.195312 325.46875 137.246094 321.855469 136.738281 321.648438 C 136.449219 321.527344 136.308594 321.195312 136.429688 320.90625 C 136.546875 320.617188 136.878906 320.476562 137.167969 320.59375 C 137.332031 320.660156 153.363281 327.136719 158.003906 322.949219 C 158.238281 322.738281 158.597656 322.757812 158.808594 322.992188 C 159.019531 323.222656 159 323.582031 158.765625 323.792969 C 157.414062 325.015625 155.308594 325.46875 152.921875 325.46875 "/><path style=" stroke:none;fill-rule:nonzero;fill:#000000;fill-opacity:1;" d="M 145.835938 318.535156 C 145.679688 318.535156 145.523438 318.472656 145.414062 318.347656 C 145.203125 318.113281 145.21875 317.753906 145.453125 317.542969 L 148.707031 314.613281 C 148.9375 314.402344 149.296875 314.421875 149.507812 314.65625 C 149.71875 314.886719 149.699219 315.246094 149.46875 315.457031 L 146.214844 318.390625 C 146.105469 318.488281 145.972656 318.535156 145.835938 318.535156 "/><path style=" stroke:none;fill-rule:nonzero;fill:#000000;fill-opacity:1;" d="M 109.460938 228.851562 C 109.460938 228.851562 107.480469 264.683594 106.445312 277.050781 C 105.410156 289.421875 108.867188 309.304688 108.867188 309.304688 L 118.734375 308.785156 C 118.734375 308.785156 119.414062 284.609375 120.144531 277.898438 C 120.144531 277.898438 124.3125 268.796875 125.546875 260.679688 C 126.785156 252.5625 130.992188 239.742188 130.992188 239.742188 C 130.992188 239.742188 134.410156 303.734375 134.738281 308.761719 C 134.738281 308.761719 142.476562 309.105469 145.25 307.359375 C 145.25 307.359375 150.167969 284.027344 149.460938 271.332031 C 148.753906 258.636719 149.527344 227.097656 149.527344 227.097656 L 109.460938 228.851562 "/><path style=" stroke:none;fill-rule:nonzero;fill:#ffffff;fill-opacity:1;" d="M 118.328125 278.464844 L 115.3125 278.464844 C 115 278.464844 114.742188 278.207031 114.742188 277.894531 C 114.742188 277.582031 115 277.328125 115.3125 277.328125 L 118.328125 277.328125 C 118.644531 277.328125 118.898438 277.582031 118.898438 277.894531 C 118.898438 278.207031 118.644531 278.464844 118.328125 278.464844 "/><path style=" stroke:none;fill-rule:nonzero;fill:#ffffff;fill-opacity:1;" d="M 139.8125 297.074219 C 139.808594 297.074219 139.804688 297.074219 139.804688 297.074219 C 139.488281 297.070312 139.238281 296.808594 139.246094 296.496094 C 139.355469 290.507812 145.886719 279.84375 146.164062 279.394531 C 146.328125 279.125 146.679688 279.042969 146.945312 279.207031 C 147.214844 279.371094 147.296875 279.722656 147.132812 279.988281 C 147.066406 280.097656 140.484375 290.839844 140.382812 296.519531 C 140.375 296.828125 140.125 297.074219 139.8125 297.074219 "/><path style=" stroke:none;fill-rule:nonzero;fill:#ffffff;fill-opacity:1;" d="M 152.652344 171.546875 C 153.371094 171.492188 156.898438 178.710938 167.929688 178.40625 C 178.964844 178.105469 187.816406 165.761719 187.816406 165.761719 C 187.816406 165.761719 191.628906 159.339844 194.519531 157.015625 C 197.410156 154.695312 197.863281 154.386719 197.863281 154.386719 C 197.863281 154.386719 198.773438 155.59375 197.863281 157.015625 C 196.960938 158.4375 194.453125 161.097656 194.453125 161.097656 C 194.453125 161.097656 197.214844 162.609375 195.96875 165.761719 C 194.539062 169.386719 190.507812 169.09375 190.507812 169.09375 C 190.507812 169.09375 182.328125 205.304688 148.515625 188.097656 L 152.652344 171.546875 "/><path style=" stroke:none;fill-rule:nonzero;fill:#000000;fill-opacity:1;" d="M 149.179688 187.796875 C 158.941406 192.667969 167.441406 193.46875 174.457031 190.179688 C 186.292969 184.625 189.917969 169.125 189.953125 168.96875 C 190.015625 168.695312 190.265625 168.507812 190.550781 168.527344 C 190.695312 168.539062 194.183594 168.734375 195.441406 165.554688 C 196.488281 162.898438 194.277344 161.644531 194.179688 161.59375 C 194.027344 161.511719 193.921875 161.359375 193.894531 161.183594 C 193.867188 161.011719 193.921875 160.835938 194.039062 160.707031 C 194.066406 160.679688 196.519531 158.070312 197.386719 156.710938 C 197.746094 156.144531 197.738281 155.628906 197.644531 155.265625 C 197.183594 155.621094 196.347656 156.277344 194.875 157.460938 C 192.097656 159.691406 188.34375 165.988281 188.308594 166.054688 C 188.296875 166.066406 188.289062 166.082031 188.28125 166.09375 C 187.910156 166.605469 179.132812 178.667969 167.945312 178.972656 C 158.929688 179.21875 154.679688 174.480469 153.074219 172.695312 C 153.042969 172.660156 153.011719 172.621094 152.976562 172.585938 Z M 165.285156 193.304688 C 160.105469 193.304688 154.414062 191.738281 148.257812 188.605469 C 148.019531 188.484375 147.902344 188.214844 147.964844 187.960938 L 152.101562 171.410156 C 152.160156 171.171875 152.363281 171 152.605469 170.980469 C 153.03125 170.945312 153.316406 171.257812 153.921875 171.933594 C 155.570312 173.773438 159.414062 178.074219 167.914062 177.839844 C 178.351562 177.550781 186.949219 165.984375 187.339844 165.449219 C 187.636719 164.957031 191.285156 158.886719 194.164062 156.570312 C 197.039062 154.261719 197.527344 153.929688 197.546875 153.914062 C 197.796875 153.746094 198.136719 153.804688 198.320312 154.046875 C 198.367188 154.109375 199.453125 155.589844 198.34375 157.324219 C 197.648438 158.414062 196.089844 160.160156 195.316406 161.003906 C 196.347656 161.859375 197.441406 163.582031 196.5 165.96875 C 195.242188 169.148438 192.15625 169.605469 190.957031 169.664062 C 190.269531 172.335938 186.277344 185.890625 174.9375 191.210938 C 171.960938 192.609375 168.738281 193.304688 165.285156 193.304688 "/><path style=" stroke:none;fill-rule:nonzero;fill:#5479f7;fill-opacity:1;" d="M 97.964844 188.097656 C 97.964844 188.097656 101.277344 166.734375 112.972656 161.476562 C 124.671875 156.21875 140.5 156.953125 144.863281 159.578125 C 149.226562 162.203125 160.601562 174.070312 160.601562 174.070312 L 150.550781 188.097656 C 150.550781 188.097656 152.847656 225.859375 151.03125 235.828125 C 151.03125 235.828125 139.851562 237.132812 135.105469 235.265625 C 130.363281 233.398438 114.769531 230.78125 107.316406 234.207031 L 108.671875 186.398438 L 97.964844 188.097656 "/><path style=" stroke:none;fill-rule:nonzero;fill:#000000;fill-opacity:1;" d="M 117.445312 231.972656 C 124.5625 231.972656 132.238281 233.523438 135.316406 234.738281 C 139.359375 236.328125 148.472656 235.519531 150.542969 235.308594 C 152.195312 224.917969 150.007812 188.503906 149.984375 188.132812 C 149.976562 188.003906 150.011719 187.875 150.089844 187.765625 L 159.863281 174.125 C 157.972656 172.167969 148.410156 162.375 144.570312 160.0625 C 140.503906 157.617188 124.835938 156.769531 113.207031 161.996094 C 103.171875 166.503906 99.398438 183.558594 98.664062 187.410156 L 108.582031 185.835938 C 108.75 185.808594 108.917969 185.859375 109.046875 185.96875 C 109.171875 186.082031 109.242188 186.246094 109.238281 186.414062 L 107.910156 233.34375 C 110.535156 232.351562 113.921875 231.972656 117.445312 231.972656 Z M 143.15625 236.84375 C 140.152344 236.84375 136.964844 236.609375 134.898438 235.796875 C 130.019531 233.871094 114.625 231.476562 107.554688 234.722656 C 107.375 234.804688 107.167969 234.789062 107.003906 234.679688 C 106.839844 234.570312 106.742188 234.386719 106.746094 234.1875 L 108.082031 187.066406 L 98.054688 188.660156 C 97.875 188.6875 97.691406 188.628906 97.5625 188.503906 C 97.433594 188.375 97.375 188.191406 97.402344 188.011719 C 97.539062 187.125 100.898438 166.28125 112.742188 160.957031 C 124.34375 155.746094 140.40625 156.230469 145.15625 159.089844 C 149.535156 161.722656 160.546875 173.191406 161.011719 173.675781 C 161.203125 173.875 161.226562 174.179688 161.066406 174.402344 L 151.128906 188.265625 C 151.328125 191.566406 153.351562 226.277344 151.59375 235.929688 C 151.546875 236.175781 151.347656 236.367188 151.097656 236.394531 C 150.835938 236.425781 147.15625 236.84375 143.15625 236.84375 "/><path style=" stroke:none;fill-rule:nonzero;fill:#000000;fill-opacity:1;" d="M 117.589844 224.921875 C 117.320312 224.921875 117.082031 224.726562 117.03125 224.453125 C 116.976562 224.144531 117.183594 223.847656 117.492188 223.792969 C 135.148438 220.675781 140.261719 208.507812 140.308594 208.386719 C 140.429688 208.09375 140.757812 207.953125 141.050781 208.070312 C 141.34375 208.191406 141.484375 208.523438 141.363281 208.8125 C 141.3125 208.941406 135.957031 221.6875 117.691406 224.914062 C 117.65625 224.917969 117.625 224.921875 117.589844 224.921875 "/><path style=" stroke:none;fill-rule:nonzero;fill:#000000;fill-opacity:1;" d="M 149.703125 203.03125 L 126.941406 203.03125 L 134.070312 177.613281 L 156.835938 177.613281 L 149.703125 203.03125 "/><path style=" stroke:none;fill-rule:nonzero;fill:#ffffff;fill-opacity:1;" d="M 99.972656 188.179688 L 111.492188 183.03125 C 111.492188 183.03125 109.871094 202.546875 133.179688 193.535156 C 133.179688 193.535156 132.320312 191.027344 132.441406 188.097656 C 132.5625 185.167969 134.316406 188.003906 134.5625 190.382812 C 134.808594 192.765625 140.28125 191.796875 143.566406 190.859375 C 146.855469 189.921875 151.171875 190.535156 143.566406 194.730469 C 135.960938 198.925781 134.296875 197.054688 134.296875 197.054688 C 134.296875 197.054688 124.582031 210.636719 112.5 207.75 C 97.636719 204.203125 99.972656 188.179688 99.972656 188.179688 "/><path style=" stroke:none;fill-rule:nonzero;fill:#000000;fill-opacity:1;" d="M 100.5 188.566406 C 100.398438 189.570312 100.183594 192.917969 101.21875 196.515625 C 102.855469 202.1875 106.695312 205.78125 112.632812 207.199219 C 113.734375 207.464844 114.820312 207.582031 115.882812 207.582031 C 125.941406 207.582031 133.746094 196.839844 133.832031 196.722656 C 133.933594 196.582031 134.09375 196.496094 134.265625 196.484375 C 134.433594 196.476562 134.605469 196.546875 134.722656 196.675781 C 134.726562 196.675781 136.433594 198.015625 143.292969 194.230469 C 147.203125 192.074219 147.234375 191.242188 147.234375 191.234375 C 147.050781 191.019531 145.566406 190.882812 143.722656 191.40625 C 142.152344 191.855469 136.871094 193.210938 134.84375 191.839844 C 134.347656 191.5 134.054688 191.019531 133.996094 190.441406 C 133.878906 189.300781 133.398438 188.160156 133.050781 187.65625 C 133.035156 187.769531 133.019531 187.921875 133.011719 188.121094 C 132.894531 190.902344 133.710938 193.328125 133.71875 193.351562 C 133.816406 193.640625 133.667969 193.957031 133.382812 194.066406 C 125.328125 197.179688 119.269531 197.285156 115.378906 194.375 C 111.355469 191.363281 110.902344 186.070312 110.894531 183.921875 Z M 115.953125 208.730469 C 114.789062 208.730469 113.589844 208.597656 112.367188 208.304688 C 97.171875 204.675781 99.382812 188.261719 99.410156 188.097656 C 99.4375 187.90625 99.5625 187.742188 99.738281 187.660156 L 111.261719 182.511719 C 111.445312 182.429688 111.65625 182.453125 111.820312 182.566406 C 111.984375 182.683594 112.078125 182.878906 112.058594 183.078125 C 112.054688 183.148438 111.542969 190.089844 116.066406 193.46875 C 119.546875 196.066406 125.066406 195.972656 132.480469 193.191406 C 132.230469 192.28125 131.78125 190.308594 131.875 188.074219 C 131.890625 187.636719 131.945312 186.3125 132.890625 186.28125 C 134.089844 186.238281 134.980469 188.894531 135.128906 190.328125 C 135.152344 190.570312 135.261719 190.746094 135.480469 190.894531 C 136.6875 191.710938 140.332031 191.191406 143.414062 190.3125 C 144.855469 189.898438 147.734375 189.476562 148.292969 190.820312 C 148.746094 191.921875 147.375 193.28125 143.84375 195.226562 C 138.027344 198.433594 135.472656 198.242188 134.441406 197.8125 C 132.824219 199.914062 125.480469 208.730469 115.953125 208.730469 "/><path style=" stroke:none;fill-rule:nonzero;fill:#000000;fill-opacity:1;" d="M 130.722656 151.742188 C 129.730469 152.652344 127.78125 153.761719 126.261719 152.996094 C 125.128906 152.425781 124.492188 150.945312 124.53125 149.253906 C 124.007812 149.296875 123.320312 149.257812 122.828125 148.824219 C 122.074219 148.15625 122.214844 146.929688 122.242188 146.121094 C 122.378906 142.390625 120.214844 141.820312 120.746094 139.289062 C 121.160156 137.304688 122.722656 136.117188 123.015625 135.894531 C 124.488281 134.777344 125.488281 135.140625 127.96875 134.488281 C 132.140625 133.398438 132.273438 131.597656 135.023438 131.589844 C 135.183594 131.589844 138.925781 131.632812 140.195312 134.214844 C 141.226562 136.316406 140.019531 138.871094 138.773438 140.214844 C 137.160156 141.949219 136 141.089844 134.378906 142.550781 C 131.53125 145.109375 133.679688 149.035156 130.722656 151.742188 "/><path style=" stroke:none;fill-rule:nonzero;fill:#ffffff;fill-opacity:1;" d="M 139.050781 145.085938 L 138.886719 144.945312 C 138.0625 144.234375 137.203125 143.410156 136.984375 142.34375 C 136.050781 137.804688 131.890625 136.15625 131.703125 140.324219 C 131.652344 141.375 127.8125 141.320312 128.265625 142.425781 C 129.457031 145.300781 129.480469 144.527344 127.804688 145.585938 C 127.613281 145.59375 127.425781 145.636719 127.246094 145.71875 C 126.386719 146.121094 126.082031 147.285156 126.566406 148.328125 C 126.863281 148.957031 127.378906 149.390625 127.933594 149.550781 L 127.933594 154.097656 C 127.933594 155.800781 126.902344 157.335938 125.324219 157.980469 L 123.789062 158.609375 C 123.789062 158.609375 130.949219 163.28125 138.21875 158.148438 L 137.246094 157.714844 C 135.539062 156.949219 134.417969 155.277344 134.359375 153.40625 L 134.351562 152.515625 C 134.839844 152.558594 135.3125 152.527344 135.75 152.398438 C 137.78125 151.808594 138.457031 149.46875 138.113281 146.554688 L 138.9375 146.113281 C 139.324219 145.902344 139.382812 145.375 139.050781 145.085938 "/><path style=" stroke:none;fill-rule:nonzero;fill:#000000;fill-opacity:1;" d="M 125.113281 158.679688 C 127.152344 159.652344 131.96875 161.289062 137.035156 158.242188 L 137.015625 158.234375 C 135.121094 157.382812 133.855469 155.496094 133.789062 153.421875 L 133.78125 152.523438 C 133.78125 152.359375 133.847656 152.207031 133.964844 152.097656 C 134.082031 151.988281 134.238281 151.9375 134.402344 151.949219 C 134.835938 151.988281 135.238281 151.957031 135.589844 151.855469 C 137.839844 151.199219 137.707031 147.976562 137.546875 146.625 C 137.519531 146.390625 137.636719 146.164062 137.84375 146.054688 L 138.671875 145.609375 C 138.675781 145.605469 138.695312 145.597656 138.699219 145.566406 C 138.703125 145.539062 138.6875 145.523438 138.679688 145.519531 L 138.515625 145.375 C 137.640625 144.621094 136.683594 143.710938 136.425781 142.457031 C 135.878906 139.792969 134.230469 138.425781 133.289062 138.5 C 132.441406 138.5625 132.292969 139.816406 132.269531 140.347656 C 132.226562 141.261719 131.128906 141.570312 130.066406 141.867188 C 129.675781 141.976562 129.058594 142.152344 128.832031 142.300781 C 128.984375 142.671875 129.121094 142.980469 129.230469 143.234375 C 129.796875 144.539062 130.007812 145.027344 128.808594 145.667969 C 128.621094 145.765625 128.390625 145.890625 128.109375 146.070312 C 128.023438 146.121094 127.929688 146.152344 127.828125 146.15625 C 127.707031 146.160156 127.589844 146.1875 127.488281 146.234375 C 126.914062 146.503906 126.730469 147.332031 127.082031 148.085938 C 127.296875 148.542969 127.671875 148.882812 128.089844 149.003906 C 128.332031 149.070312 128.503906 149.296875 128.503906 149.550781 L 128.503906 154.097656 C 128.503906 156.039062 127.339844 157.769531 125.539062 158.507812 Z M 130.875 161.105469 C 126.652344 161.105469 123.527344 159.113281 123.476562 159.082031 C 123.300781 158.96875 123.203125 158.765625 123.222656 158.550781 C 123.242188 158.34375 123.378906 158.160156 123.574219 158.082031 L 125.109375 157.453125 C 126.480469 156.894531 127.363281 155.574219 127.363281 154.097656 L 127.363281 149.9375 C 126.804688 149.664062 126.339844 149.183594 126.050781 148.566406 C 125.4375 147.246094 125.863281 145.738281 127.007812 145.203125 C 127.199219 145.113281 127.40625 145.054688 127.621094 145.03125 C 127.882812 144.871094 128.105469 144.753906 128.273438 144.664062 C 128.363281 144.613281 128.460938 144.5625 128.527344 144.523438 C 128.476562 144.351562 128.335938 144.027344 128.1875 143.691406 C 128.0625 143.40625 127.914062 143.0625 127.742188 142.640625 C 127.628906 142.367188 127.632812 142.089844 127.757812 141.835938 C 128.039062 141.253906 128.835938 141.03125 129.757812 140.773438 C 130.183594 140.652344 130.964844 140.433594 131.132812 140.253906 C 131.265625 137.714844 132.746094 137.398438 133.199219 137.363281 C 134.792969 137.238281 136.890625 139.0625 137.539062 142.226562 C 137.726562 143.132812 138.523438 143.882812 139.257812 144.515625 L 139.421875 144.65625 C 139.722656 144.914062 139.875 145.300781 139.832031 145.691406 C 139.789062 146.082031 139.554688 146.425781 139.207031 146.613281 L 138.71875 146.875 C 139.011719 150.136719 138 152.339844 135.910156 152.945312 C 135.601562 153.035156 135.269531 153.085938 134.925781 153.101562 L 134.925781 153.398438 C 134.980469 155.027344 135.980469 156.523438 137.480469 157.195312 L 138.449219 157.628906 C 138.636719 157.714844 138.761719 157.890625 138.78125 158.09375 C 138.804688 158.296875 138.710938 158.496094 138.546875 158.613281 C 135.875 160.496094 133.207031 161.105469 130.875 161.105469 "/><path style=" stroke:none;fill-rule:nonzero;fill:#000000;fill-opacity:1;" d="M 134.351562 153.085938 C 134.324219 153.085938 134.292969 153.082031 134.265625 153.078125 C 131.207031 152.609375 129.828125 150.265625 129.769531 150.167969 C 129.613281 149.894531 129.707031 149.546875 129.980469 149.390625 C 130.25 149.234375 130.597656 149.328125 130.753906 149.597656 C 130.808594 149.6875 131.941406 151.570312 134.4375 151.953125 C 134.746094 152 134.960938 152.292969 134.914062 152.601562 C 134.871094 152.882812 134.628906 153.085938 134.351562 153.085938 "/><path style=" stroke:none;fill-rule:nonzero;fill:#99b9ff;fill-opacity:1;" d="M 39.511719 206.285156 C 38.777344 208.789062 37.628906 212.25 38.898438 213.914062 C 41.210938 216.933594 43.125 216.449219 45.976562 215.410156 C 51.675781 213.332031 60.777344 210.050781 63.429688 211.875 L 63.550781 206.285156 L 39.511719 206.285156 "/><path style=" stroke:none;fill-rule:nonzero;fill:#ffffff;fill-opacity:1;" d="M 43.847656 306.132812 L 41.984375 319.203125 L 37.957031 319.203125 L 37.730469 306.347656 L 43.847656 306.132812 "/><path style=" stroke:none;fill-rule:nonzero;fill:#000000;fill-opacity:1;" d="M 38.515625 318.632812 L 41.492188 318.632812 L 43.1875 306.726562 L 38.308594 306.898438 Z M 41.988281 319.769531 L 37.957031 319.769531 C 37.644531 319.769531 37.390625 319.519531 37.386719 319.210938 L 37.164062 306.359375 C 37.15625 306.050781 37.402344 305.792969 37.710938 305.78125 L 43.828125 305.566406 C 43.992188 305.558594 44.160156 305.628906 44.269531 305.753906 C 44.382812 305.878906 44.433594 306.046875 44.410156 306.214844 L 42.550781 319.28125 C 42.507812 319.5625 42.269531 319.769531 41.988281 319.769531 "/><path style=" stroke:none;fill-rule:nonzero;fill:#ffffff;fill-opacity:1;" d="M 42.148438 331.695312 C 40.21875 331.902344 37.0625 332.035156 33.386719 331.402344 C 32.179688 331.195312 31.414062 329.992188 31.746094 328.816406 C 32.617188 325.722656 34.027344 319.644531 36.285156 316.589844 C 36.46875 316.339844 36.855469 316.382812 36.992188 316.660156 L 37.707031 318.097656 L 38.492188 316.441406 C 38.613281 316.242188 38.820312 316.109375 39.050781 316.085938 L 40.957031 316.117188 C 41.335938 316.082031 41.679688 316.34375 41.742188 316.71875 L 41.984375 318.097656 L 42.867188 316.976562 C 43.109375 316.671875 43.605469 316.835938 43.617188 317.226562 L 43.96875 329.449219 C 44.078125 330.570312 43.269531 331.574219 42.148438 331.695312 "/><path style=" stroke:none;fill-rule:nonzero;fill:#000000;fill-opacity:1;" d="M 36.59375 317.136719 C 34.789062 319.730469 33.527344 324.410156 32.6875 327.535156 C 32.546875 328.058594 32.414062 328.542969 32.296875 328.972656 C 32.179688 329.378906 32.242188 329.804688 32.46875 330.164062 C 32.699219 330.527344 33.058594 330.769531 33.480469 330.839844 C 37.0625 331.457031 40.136719 331.335938 42.085938 331.128906 C 42.890625 331.042969 43.480469 330.3125 43.402344 329.503906 C 43.402344 329.492188 43.398438 329.480469 43.398438 329.464844 L 43.058594 317.65625 L 42.433594 318.449219 C 42.292969 318.625 42.0625 318.703125 41.847656 318.648438 C 41.628906 318.59375 41.464844 318.414062 41.425781 318.195312 L 41.183594 316.816406 C 41.167969 316.734375 41.089844 316.675781 41.007812 316.683594 C 40.988281 316.683594 40.96875 316.6875 40.945312 316.683594 L 39.085938 316.65625 C 39.046875 316.664062 39.015625 316.683594 38.992188 316.714844 L 38.21875 318.339844 C 38.125 318.535156 37.929688 318.664062 37.710938 318.664062 C 37.472656 318.667969 37.292969 318.542969 37.195312 318.347656 Z M 38.855469 332.433594 C 37.230469 332.433594 35.339844 332.316406 33.289062 331.960938 C 32.554688 331.835938 31.902344 331.402344 31.507812 330.773438 C 31.109375 330.144531 31 329.378906 31.199219 328.664062 C 31.320312 328.238281 31.449219 327.761719 31.589844 327.238281 C 32.476562 323.949219 33.816406 318.972656 35.828125 316.253906 C 36.03125 315.976562 36.359375 315.828125 36.699219 315.859375 C 37.046875 315.890625 37.347656 316.097656 37.503906 316.40625 L 37.695312 316.792969 L 37.980469 316.195312 C 37.988281 316.179688 37.996094 316.164062 38.003906 316.144531 C 38.21875 315.792969 38.589844 315.558594 39 315.519531 C 39.019531 315.519531 39.042969 315.519531 39.0625 315.519531 L 40.9375 315.546875 C 41.585938 315.507812 42.191406 315.96875 42.304688 316.621094 L 42.328125 316.746094 L 42.421875 316.625 C 42.679688 316.296875 43.109375 316.167969 43.507812 316.300781 C 43.90625 316.429688 44.171875 316.789062 44.183594 317.210938 L 44.535156 329.414062 C 44.664062 330.835938 43.625 332.109375 42.207031 332.261719 C 41.304688 332.359375 40.167969 332.433594 38.855469 332.433594 "/><path style=" stroke:none;fill-rule:nonzero;fill:#000000;fill-opacity:1;" d="M 37.566406 330.207031 C 36.128906 330.207031 34.515625 330.066406 32.921875 329.648438 C 32.617188 329.566406 32.433594 329.253906 32.515625 328.949219 C 32.59375 328.648438 32.90625 328.464844 33.210938 328.546875 C 37.617188 329.703125 42.308594 328.554688 42.351562 328.542969 C 42.660156 328.46875 42.96875 328.652344 43.042969 328.957031 C 43.121094 329.265625 42.933594 329.570312 42.628906 329.648438 C 42.496094 329.679688 40.355469 330.207031 37.566406 330.207031 "/><path style=" stroke:none;fill-rule:nonzero;fill:#000000;fill-opacity:1;" d="M 40.265625 325.09375 L 35.941406 325.09375 C 35.628906 325.09375 35.371094 324.839844 35.371094 324.527344 C 35.371094 324.210938 35.628906 323.957031 35.941406 323.957031 L 40.265625 323.957031 C 40.578125 323.957031 40.832031 324.210938 40.832031 324.527344 C 40.832031 324.839844 40.578125 325.09375 40.265625 325.09375 "/><path style=" stroke:none;fill-rule:nonzero;fill:#ffffff;fill-opacity:1;" d="M 78.042969 307.300781 L 79.71875 322.53125 L 86.128906 323.871094 L 85.738281 306.015625 L 78.042969 307.300781 "/><path style=" stroke:none;fill-rule:nonzero;fill:#000000;fill-opacity:1;" d="M 80.238281 322.058594 L 85.542969 323.167969 L 85.183594 306.683594 L 78.667969 307.773438 Z M 86.128906 324.441406 C 86.089844 324.441406 86.050781 324.4375 86.011719 324.429688 L 79.601562 323.089844 C 79.363281 323.035156 79.179688 322.835938 79.152344 322.59375 L 77.476562 307.363281 C 77.445312 307.0625 77.652344 306.789062 77.949219 306.742188 L 85.644531 305.453125 C 85.804688 305.425781 85.972656 305.472656 86.101562 305.574219 C 86.226562 305.679688 86.304688 305.835938 86.304688 306 L 86.695312 323.859375 C 86.699219 324.035156 86.625 324.199219 86.492188 324.308594 C 86.386719 324.394531 86.257812 324.441406 86.128906 324.441406 "/><path style=" stroke:none;fill-rule:nonzero;fill:#ffffff;fill-opacity:1;" d="M 76.90625 328.992188 C 76.8125 326.972656 76.835938 323.371094 77.917969 320.894531 C 78.183594 320.28125 78.875 319.980469 79.503906 320.203125 L 83.617188 321.664062 L 83.617188 320.570312 C 83.617188 320.21875 83.867188 319.925781 84.191406 319.910156 L 87.046875 319.746094 C 88.117188 319.683594 89.179688 319.90625 90.152344 320.382812 C 93.097656 321.832031 99.335938 325.238281 100.871094 328.8125 C 101.25 329.695312 100.664062 330.691406 99.710938 330.816406 C 97.054688 331.160156 90.617188 331.632812 78.496094 330.640625 C 77.625 330.570312 76.945312 329.863281 76.90625 328.992188 "/><path style=" stroke:none;fill-rule:nonzero;fill:#000000;fill-opacity:1;" d="M 79.082031 320.699219 C 78.808594 320.699219 78.550781 320.855469 78.4375 321.121094 C 77.398438 323.511719 77.386719 327.0625 77.472656 328.964844 C 77.5 329.550781 77.960938 330.027344 78.542969 330.074219 C 90.515625 331.054688 96.898438 330.605469 99.640625 330.25 C 99.921875 330.214844 100.164062 330.050781 100.304688 329.804688 C 100.441406 329.566406 100.457031 329.285156 100.347656 329.035156 C 98.871094 325.59375 92.550781 322.195312 89.902344 320.894531 C 89.019531 320.460938 88.042969 320.257812 87.082031 320.3125 L 84.222656 320.476562 C 84.214844 320.480469 84.1875 320.511719 84.1875 320.570312 L 84.1875 321.664062 C 84.1875 321.851562 84.097656 322.023438 83.945312 322.128906 C 83.792969 322.234375 83.597656 322.265625 83.425781 322.203125 L 79.3125 320.738281 C 79.238281 320.710938 79.160156 320.699219 79.082031 320.699219 Z M 91.515625 331.804688 C 88.175781 331.804688 83.878906 331.652344 78.449219 331.207031 C 77.296875 331.113281 76.386719 330.171875 76.335938 329.015625 C 76.246094 327.015625 76.261719 323.269531 77.394531 320.664062 C 77.777344 319.785156 78.789062 319.34375 79.695312 319.667969 L 83.046875 320.859375 L 83.046875 320.570312 C 83.046875 319.917969 83.535156 319.378906 84.15625 319.339844 L 87.015625 319.179688 C 88.171875 319.113281 89.34375 319.351562 90.40625 319.875 C 93.835938 321.558594 99.824219 324.933594 101.394531 328.585938 C 101.644531 329.167969 101.605469 329.816406 101.292969 330.367188 C 100.972656 330.929688 100.421875 331.296875 99.785156 331.378906 C 98.253906 331.574219 95.601562 331.804688 91.515625 331.804688 "/><path style=" stroke:none;fill-rule:nonzero;fill:#000000;fill-opacity:1;" d="M 89.308594 329.617188 C 86.390625 329.617188 82.921875 329.472656 79.121094 329.03125 C 78.808594 328.992188 78.585938 328.710938 78.621094 328.398438 C 78.660156 328.089844 78.941406 327.863281 79.253906 327.902344 C 90.128906 329.164062 98.214844 327.96875 98.296875 327.957031 C 98.605469 327.910156 98.894531 328.125 98.941406 328.4375 C 98.988281 328.746094 98.777344 329.035156 98.464844 329.082031 C 98.410156 329.09375 94.859375 329.617188 89.308594 329.617188 "/><path style=" stroke:none;fill-rule:nonzero;fill:#000000;fill-opacity:1;" d="M 91.839844 325.679688 C 91.722656 325.679688 91.609375 325.648438 91.507812 325.574219 L 86.570312 322.027344 C 86.316406 321.84375 86.257812 321.488281 86.441406 321.234375 C 86.625 320.976562 86.980469 320.921875 87.234375 321.101562 L 92.171875 324.652344 C 92.425781 324.835938 92.484375 325.191406 92.300781 325.445312 C 92.191406 325.601562 92.015625 325.679688 91.839844 325.679688 "/><path style=" stroke:none;fill-rule:nonzero;fill:#000000;fill-opacity:1;" d="M 80.042969 208.480469 C 80.042969 208.480469 88.96875 267.570312 87.3125 309.539062 C 87.277344 310.453125 86.535156 311.175781 85.621094 311.199219 L 78.511719 311.382812 C 77.65625 311.40625 76.910156 310.800781 76.757812 309.957031 C 75.0625 300.574219 65.589844 248.941406 60.621094 239.308594 C 60.621094 239.308594 46.558594 291.105469 45.191406 308.261719 C 45.121094 309.136719 44.421875 309.824219 43.546875 309.882812 C 41.871094 309.984375 39.183594 310.082031 37.226562 309.792969 C 36.421875 309.675781 35.808594 309.015625 35.734375 308.210938 C 34.417969 293.851562 34.097656 280.714844 34.03125 271.339844 C 33.828125 243.71875 36.46875 231.171875 37.914062 225.222656 C 39.242188 219.757812 40.671875 215.316406 41.710938 212.3125 L 45.191406 202.394531 L 80.042969 208.480469 "/><path style=" stroke:none;fill-rule:nonzero;fill:#caddff;fill-opacity:1;" d="M 60.59375 241.8125 C 60.542969 241.8125 60.492188 241.804688 60.445312 241.792969 C 60.140625 241.710938 59.960938 241.398438 60.042969 241.09375 L 61.761719 234.773438 C 62.246094 232.824219 63.453125 231.503906 65.15625 231.066406 L 66.828125 230.640625 C 67.132812 230.558594 67.445312 230.742188 67.523438 231.046875 C 67.601562 231.351562 67.417969 231.664062 67.113281 231.742188 L 65.4375 232.167969 C 63.796875 232.585938 63.132812 233.972656 62.863281 235.0625 L 61.144531 241.394531 C 61.074219 241.644531 60.84375 241.8125 60.59375 241.8125 "/><path style=" stroke:none;fill-rule:nonzero;fill:#5479f7;fill-opacity:1;" d="M 72.203125 152.695312 C 76.9375 152.671875 81.261719 155.347656 83.335938 159.578125 C 85.734375 164.476562 89.121094 177.292969 89.253906 182.894531 C 89.484375 192.679688 80.910156 193.230469 80.65625 193.242188 C 80.652344 193.242188 80.652344 193.246094 80.652344 193.25 C 80.675781 193.53125 81.679688 204.164062 81.757812 206.054688 C 81.902344 209.507812 75.5 214.890625 68.140625 212.238281 C 60.820312 209.597656 40.824219 204.335938 38.792969 208.816406 C 38.789062 208.824219 38.78125 208.820312 38.78125 208.8125 L 47.171875 177.703125 C 47.171875 177.699219 47.167969 177.695312 47.164062 177.695312 L 40.28125 178.027344 C 40.277344 178.027344 40.277344 178.027344 40.277344 178.027344 L 34.667969 174.785156 C 34.664062 174.78125 34.664062 174.78125 34.664062 174.777344 L 36.085938 168.488281 C 38.78125 157.746094 46 152.816406 55.316406 152.773438 L 72.203125 152.695312 "/><path style=" stroke:none;fill-rule:nonzero;fill:#ffffff;fill-opacity:1;" d="M 50.117188 176.695312 C 48.832031 176.457031 49.183594 174.964844 44.660156 174.695312 C 31.609375 173.921875 37.933594 167.292969 45.410156 168.558594 C 47.890625 168.976562 48.863281 170.578125 49.796875 170.984375 C 57.617188 174.394531 52.683594 177.171875 50.117188 176.695312 "/><path style=" stroke:none;fill-rule:nonzero;fill:#000000;fill-opacity:1;" d="M 43.527344 168.96875 C 40.984375 168.96875 38.792969 169.863281 37.984375 170.914062 C 37.539062 171.492188 37.710938 171.867188 37.765625 171.988281 C 37.957031 172.40625 39.019531 173.792969 44.695312 174.128906 C 47.921875 174.320312 48.84375 175.125 49.519531 175.710938 C 49.820312 175.972656 49.960938 176.089844 50.222656 176.136719 C 51.359375 176.347656 53.148438 175.753906 53.421875 174.859375 C 53.707031 173.933594 52.265625 172.683594 49.566406 171.507812 C 49.191406 171.34375 48.855469 171.0625 48.46875 170.734375 C 47.746094 170.128906 46.84375 169.375 45.316406 169.117188 C 44.710938 169.015625 44.109375 168.96875 43.527344 168.96875 Z M 50.757812 177.320312 C 50.5 177.320312 50.253906 177.300781 50.015625 177.253906 C 49.4375 177.148438 49.101562 176.855469 48.773438 176.570312 C 48.222656 176.09375 47.464844 175.433594 44.625 175.265625 C 40.175781 175 37.449219 174.03125 36.730469 172.460938 C 36.402344 171.738281 36.527344 170.945312 37.082031 170.21875 C 38.285156 168.65625 41.644531 167.34375 45.503906 167.996094 C 47.335938 168.304688 48.414062 169.207031 49.199219 169.863281 C 49.519531 170.132812 49.796875 170.363281 50.023438 170.464844 C 54.351562 172.351562 54.851562 174.078125 54.511719 175.191406 C 54.105469 176.519531 52.324219 177.320312 50.757812 177.320312 "/><path style=" stroke:none;fill-rule:nonzero;fill:#ffffff;fill-opacity:1;" d="M 66.546875 154.527344 C 66.984375 154.152344 66.753906 153.441406 66.183594 153.371094 L 65.296875 153.265625 C 64.347656 153.152344 63.554688 152.519531 63.246094 151.644531 L 61.789062 140.886719 L 58.796875 141.953125 L 54.84375 139.996094 L 55.195312 151.496094 C 55.167969 152.5 54.511719 153.386719 53.546875 153.730469 L 52.390625 154.144531 C 51.78125 154.363281 51.753906 155.1875 52.34375 155.441406 C 54.699219 156.46875 64.265625 156.476562 66.546875 154.527344 "/><path style=" stroke:none;fill-rule:nonzero;fill:#000000;fill-opacity:1;" d="M 55.441406 140.929688 L 55.765625 151.480469 C 55.730469 152.757812 54.933594 153.839844 53.738281 154.265625 L 52.582031 154.679688 C 52.519531 154.699219 52.488281 154.742188 52.484375 154.800781 C 52.484375 154.882812 52.550781 154.914062 52.570312 154.921875 C 54.933594 155.953125 64.15625 155.824219 66.179688 154.09375 C 66.191406 154.082031 66.214844 154.058594 66.199219 154.011719 C 66.1875 153.96875 66.160156 153.941406 66.113281 153.9375 L 65.230469 153.832031 C 64.058594 153.691406 63.09375 152.925781 62.710938 151.835938 C 62.695312 151.800781 62.6875 151.761719 62.679688 151.722656 L 61.316406 141.65625 L 58.988281 142.488281 C 58.84375 142.539062 58.683594 142.53125 58.546875 142.460938 Z M 58.105469 156.683594 C 55.519531 156.683594 53.144531 156.410156 52.113281 155.964844 C 51.632812 155.753906 51.332031 155.28125 51.347656 154.761719 C 51.367188 154.238281 51.699219 153.785156 52.199219 153.609375 L 53.355469 153.195312 C 54.105469 152.925781 54.605469 152.253906 54.628906 151.480469 L 54.273438 140.015625 C 54.265625 139.816406 54.367188 139.628906 54.535156 139.519531 C 54.703125 139.410156 54.914062 139.398438 55.09375 139.488281 L 58.832031 141.335938 L 61.597656 140.347656 C 61.757812 140.289062 61.9375 140.308594 62.082031 140.398438 C 62.230469 140.488281 62.328125 140.636719 62.351562 140.808594 L 63.800781 151.507812 C 64.054688 152.160156 64.648438 152.613281 65.367188 152.703125 L 66.25 152.808594 C 66.738281 152.867188 67.148438 153.210938 67.289062 153.679688 C 67.433594 154.152344 67.289062 154.640625 66.917969 154.957031 C 65.480469 156.1875 61.601562 156.683594 58.105469 156.683594 "/><path style=" stroke:none;fill-rule:nonzero;fill:#ffffff;fill-opacity:1;" d="M 63.113281 132.328125 C 68.207031 134.203125 67.332031 137.5 67.332031 137.5 C 67.269531 138.402344 67.230469 140.0625 67.402344 140.667969 C 67.539062 141.164062 68.355469 142.097656 68.394531 142.375 C 68.433594 142.648438 67.992188 143.214844 67.109375 143.417969 C 67.109375 143.417969 66.773438 147.820312 65.621094 148.542969 C 64.464844 149.261719 60.015625 147.878906 60.015625 147.878906 L 59.269531 147.578125 C 56.859375 146.613281 55.386719 144.605469 54.683594 142.117188 C 54.683594 142.117188 51.441406 128.03125 63.113281 132.328125 "/><path style=" stroke:none;fill-rule:nonzero;fill:#000000;fill-opacity:1;" d="M 60.207031 147.34375 C 62.222656 147.964844 64.742188 148.417969 65.316406 148.058594 C 65.863281 147.71875 66.390625 145.359375 66.542969 143.371094 C 66.558594 143.125 66.738281 142.917969 66.980469 142.859375 C 67.4375 142.757812 67.695312 142.542969 67.792969 142.417969 C 67.722656 142.300781 67.601562 142.125 67.515625 141.996094 C 67.238281 141.59375 66.953125 141.175781 66.851562 140.820312 C 66.597656 139.90625 66.761719 137.484375 66.765625 137.457031 C 66.765625 137.421875 66.773438 137.386719 66.78125 137.351562 C 66.808594 137.242188 67.421875 134.519531 62.917969 132.863281 C 59.984375 131.78125 57.828125 131.824219 56.511719 132.980469 C 53.765625 135.398438 55.222656 141.921875 55.238281 141.988281 C 55.9375 144.460938 57.40625 146.21875 59.480469 147.050781 Z M 64.503906 149.3125 C 62.878906 149.3125 60.660156 148.671875 59.847656 148.421875 C 59.832031 148.414062 59.820312 148.410156 59.804688 148.40625 L 59.058594 148.105469 C 56.640625 147.136719 54.941406 145.121094 54.136719 142.273438 C 54.0625 141.949219 52.503906 134.996094 55.757812 132.128906 C 57.414062 130.671875 59.953125 130.558594 63.308594 131.792969 C 68.402344 133.667969 67.996094 137.035156 67.898438 137.570312 C 67.824219 138.648438 67.828125 140.078125 67.949219 140.511719 C 68 140.691406 68.269531 141.089844 68.453125 141.351562 C 68.757812 141.800781 68.921875 142.046875 68.957031 142.292969 C 69.03125 142.816406 68.550781 143.507812 67.644531 143.847656 C 67.511719 145.242188 67.09375 148.289062 65.921875 149.023438 C 65.585938 149.234375 65.082031 149.3125 64.503906 149.3125 "/><path style=" stroke:none;fill-rule:nonzero;fill:#000000;fill-opacity:1;" d="M 61.4375 129.941406 C 62.777344 130.269531 64.085938 131.105469 64.777344 131.179688 C 65.894531 131.296875 66.699219 129.867188 68.109375 130.386719 C 69.347656 130.84375 70.042969 131.898438 70.21875 133.085938 C 70.25 133.285156 70.257812 133.492188 70.238281 133.71875 C 69.976562 136.722656 68.09375 137.359375 67.332031 137.5 C 67.332031 137.5 62.910156 137.089844 62.046875 137.296875 C 61.238281 137.492188 59.992188 138.75 59.617188 140.535156 C 59.566406 140.765625 59.367188 140.933594 59.128906 140.949219 C 58.851562 140.972656 58.601562 140.78125 58.554688 140.507812 C 58.40625 139.652344 58.003906 137.9375 57.132812 137.890625 C 56.117188 137.832031 54.828125 139.835938 56.152344 141.09375 C 56.5625 141.480469 56.425781 142.183594 55.902344 142.394531 C 55.46875 142.570312 54.925781 142.582031 54.335938 142.105469 C 54.335938 142.105469 51.714844 137.515625 52.964844 133.640625 C 54.214844 129.765625 59.652344 129.507812 61.4375 129.941406 "/><path style=" stroke:none;fill-rule:nonzero;fill:#000000;fill-opacity:1;" d="M 68.550781 142.613281 C 68.394531 142.613281 68.242188 142.550781 68.132812 142.429688 C 67.917969 142.199219 67.933594 141.839844 68.160156 141.625 C 68.359375 141.445312 68.585938 140.925781 68.625 140.214844 C 68.667969 139.355469 68.410156 138.832031 68.277344 138.730469 C 68.183594 138.792969 67.953125 139.089844 67.835938 139.695312 C 67.777344 140.003906 67.476562 140.203125 67.171875 140.148438 C 66.863281 140.089844 66.660156 139.789062 66.71875 139.480469 C 66.945312 138.289062 67.578125 137.550781 68.335938 137.585938 C 68.625 137.601562 69.15625 137.746094 69.5 138.566406 C 69.699219 139.039062 69.792969 139.644531 69.761719 140.273438 C 69.710938 141.207031 69.402344 142.027344 68.9375 142.460938 C 68.828125 142.5625 68.6875 142.613281 68.550781 142.613281 "/><path style=" stroke:none;fill-rule:nonzero;fill:#000000;fill-opacity:1;" d="M 64.390625 140.175781 C 64.367188 140.632812 64.457031 141.074219 64.628906 141.390625 C 64.757812 141.617188 64.917969 141.761719 65.058594 141.765625 C 65.382812 141.777344 65.839844 141.199219 65.890625 140.25 C 65.914062 139.796875 65.828125 139.351562 65.652344 139.035156 C 65.527344 138.808594 65.367188 138.667969 65.222656 138.660156 C 65.21875 138.660156 65.214844 138.660156 65.210938 138.660156 C 64.90625 138.660156 64.441406 139.238281 64.390625 140.175781 Z M 65.074219 142.902344 C 65.050781 142.902344 65.027344 142.902344 65.003906 142.902344 C 64.453125 142.875 63.957031 142.523438 63.632812 141.941406 C 63.355469 141.433594 63.222656 140.789062 63.257812 140.117188 C 63.335938 138.609375 64.207031 137.472656 65.28125 137.523438 C 65.828125 137.550781 66.328125 137.902344 66.648438 138.488281 C 66.925781 138.992188 67.0625 139.640625 67.027344 140.308594 C 66.949219 141.785156 66.097656 142.902344 65.074219 142.902344 "/><path style=" stroke:none;fill-rule:nonzero;fill:#000000;fill-opacity:1;" d="M 63.980469 139.78125 C 63.964844 139.78125 63.949219 139.78125 63.929688 139.777344 L 59.070312 139.34375 C 58.757812 139.316406 58.527344 139.039062 58.554688 138.726562 C 58.582031 138.414062 58.855469 138.183594 59.171875 138.210938 L 64.03125 138.644531 C 64.34375 138.675781 64.574219 138.949219 64.546875 139.261719 C 64.519531 139.558594 64.273438 139.78125 63.980469 139.78125 "/><path style=" stroke:none;fill-rule:nonzero;fill:#ffffff;fill-opacity:1;" d="M 56.234375 160.460938 C 56.234375 160.460938 58.125 163.429688 59.832031 162.90625 C 60.726562 162.628906 61.601562 159.703125 61.957031 159.597656 C 63.101562 159.265625 65.277344 158.722656 66.613281 156.335938 C 67.859375 154.105469 67.589844 152.914062 67.269531 152.371094 C 67.121094 152.117188 67.121094 151.804688 67.285156 151.5625 C 67.523438 151.210938 67.753906 150.675781 67.515625 150.128906 C 67.429688 149.9375 67.4375 149.714844 67.523438 149.523438 C 67.839844 148.785156 68.425781 147.085938 67.285156 146.75 C 66.976562 146.660156 66.640625 146.773438 66.453125 147.035156 C 66.089844 147.535156 65.332031 148.476562 64.398438 149.070312 C 63.074219 149.914062 62.28125 150.488281 61.617188 150.867188 C 61.050781 151.191406 60.75 148.351562 59.382812 147.285156 C 58.167969 146.335938 57.753906 146.816406 57.632812 147.261719 C 57.511719 147.707031 58.261719 147.882812 58.691406 150 C 59.191406 152.476562 58.667969 154.558594 58.515625 155.675781 C 58.335938 156.984375 56.234375 160.460938 56.234375 160.460938 "/><path style=" stroke:none;fill-rule:nonzero;fill:#000000;fill-opacity:1;" d="M 58.214844 147.308594 Z M 56.90625 160.4375 C 57.488281 161.238281 58.738281 162.644531 59.664062 162.359375 C 59.980469 162.238281 60.570312 160.976562 60.820312 160.4375 C 61.226562 159.5625 61.410156 159.164062 61.796875 159.050781 L 61.945312 159.011719 C 63.066406 158.683594 64.949219 158.144531 66.117188 156.058594 C 67.289062 153.96875 66.96875 152.984375 66.777344 152.65625 C 66.515625 152.214844 66.53125 151.660156 66.816406 151.242188 C 67.042969 150.90625 67.105469 150.605469 66.996094 150.355469 C 66.847656 150.027344 66.851562 149.640625 67 149.296875 C 67.34375 148.488281 67.476562 147.765625 67.328125 147.457031 C 67.300781 147.398438 67.257812 147.335938 67.125 147.296875 C 67.046875 147.273438 66.960938 147.304688 66.914062 147.367188 C 66.523438 147.90625 65.714844 148.90625 64.703125 149.550781 C 64.128906 149.914062 63.65625 150.230469 63.253906 150.5 C 62.714844 150.855469 62.292969 151.136719 61.902344 151.359375 C 61.707031 151.46875 61.488281 151.488281 61.285156 151.417969 C 60.839844 151.261719 60.640625 150.753906 60.339844 149.984375 C 60.046875 149.238281 59.644531 148.210938 59.03125 147.730469 C 58.453125 147.28125 58.226562 147.304688 58.214844 147.308594 C 58.214844 147.304688 58.214844 147.316406 58.203125 147.339844 C 58.230469 147.382812 58.265625 147.4375 58.296875 147.484375 C 58.550781 147.863281 58.96875 148.5 59.25 149.886719 C 59.691406 152.066406 59.378906 153.925781 59.175781 155.15625 C 59.136719 155.378906 59.105469 155.578125 59.078125 155.753906 C 58.917969 156.941406 57.457031 159.503906 56.90625 160.4375 Z M 59.410156 163.535156 C 57.578125 163.535156 55.949219 161.074219 55.753906 160.765625 C 55.636719 160.582031 55.632812 160.351562 55.746094 160.167969 C 56.3125 159.226562 57.820312 156.574219 57.953125 155.601562 C 57.976562 155.414062 58.011719 155.203125 58.050781 154.964844 C 58.242188 153.820312 58.53125 152.085938 58.132812 150.113281 C 57.898438 148.941406 57.566406 148.441406 57.347656 148.113281 C 57.171875 147.84375 56.96875 147.535156 57.082031 147.113281 C 57.203125 146.667969 57.480469 146.351562 57.855469 146.226562 C 58.375 146.054688 58.984375 146.253906 59.730469 146.835938 C 60.589844 147.503906 61.058594 148.699219 61.402344 149.570312 C 61.476562 149.765625 61.570312 150.007812 61.652344 150.183594 C 61.933594 150.007812 62.25 149.800781 62.621094 149.550781 C 63.035156 149.277344 63.511719 148.960938 64.09375 148.589844 C 64.945312 148.046875 65.648438 147.171875 65.992188 146.699219 C 66.320312 146.246094 66.90625 146.046875 67.445312 146.203125 C 67.863281 146.328125 68.179688 146.59375 68.359375 146.972656 C 68.738281 147.777344 68.398438 148.925781 68.042969 149.746094 C 68.019531 149.800781 68.019531 149.855469 68.035156 149.898438 C 68.304688 150.515625 68.207031 151.214844 67.757812 151.882812 C 67.71875 151.9375 67.71875 152.015625 67.757812 152.082031 C 68.199219 152.832031 68.445312 154.230469 67.109375 156.613281 C 65.710938 159.109375 63.464844 159.753906 62.257812 160.101562 L 62.253906 160.105469 C 62.152344 160.265625 61.984375 160.636719 61.851562 160.914062 C 61.230469 162.253906 60.730469 163.222656 59.996094 163.449219 C 59.800781 163.507812 59.605469 163.535156 59.410156 163.535156 "/><path style=" stroke:none;fill-rule:nonzero;fill:#5479f7;fill-opacity:1;" d="M 62.46875 161.773438 L 56.738281 158.121094 C 56.738281 158.121094 48.988281 170.648438 43.121094 174.898438 C 40.261719 176.96875 34.722656 174.535156 34.722656 174.535156 C 34.722656 174.535156 29.398438 194.976562 39.671875 197.898438 C 56.78125 202.765625 62.46875 161.773438 62.46875 161.773438 "/><path style=" stroke:none;fill-rule:nonzero;fill:#caddff;fill-opacity:1;" d="M 79.722656 194.058594 C 73.214844 194.058594 64.128906 189.050781 57.527344 184.136719 C 57.277344 183.949219 57.226562 183.59375 57.414062 183.339844 C 57.601562 183.085938 57.957031 183.035156 58.210938 183.222656 C 64.75 188.09375 74.597656 193.539062 80.828125 192.863281 C 81.140625 192.828125 81.421875 193.054688 81.457031 193.367188 C 81.488281 193.679688 81.261719 193.960938 80.953125 193.996094 C 80.554688 194.039062 80.144531 194.058594 79.722656 194.058594 "/><path style=" stroke:none;fill-rule:nonzero;fill:#caddff;fill-opacity:1;" d="M 71.054688 178.304688 C 67.371094 178.304688 60.714844 175.191406 60.402344 175.042969 C 60.121094 174.90625 60 174.570312 60.132812 174.285156 C 60.265625 174 60.605469 173.878906 60.890625 174.015625 C 63.125 175.066406 69.453125 177.671875 71.839844 177.085938 C 76.570312 175.933594 75.464844 169.984375 75.417969 169.734375 C 75.355469 169.425781 75.558594 169.125 75.867188 169.066406 C 76.171875 169.003906 76.472656 169.207031 76.535156 169.515625 C 77.023438 172.023438 76.726562 177.0625 72.109375 178.191406 C 71.800781 178.269531 71.445312 178.304688 71.054688 178.304688 "/><path style=" stroke:none;fill-rule:nonzero;fill:#caddff;fill-opacity:1;" d="M 42.617188 176.0625 C 42.445312 176.0625 42.273438 175.984375 42.160156 175.835938 C 41.972656 175.582031 42.027344 175.226562 42.277344 175.039062 C 48.398438 170.464844 56.019531 157.855469 56.097656 157.726562 C 56.257812 157.457031 56.609375 157.371094 56.878906 157.535156 C 57.148438 157.695312 57.234375 158.046875 57.074219 158.3125 C 56.757812 158.839844 49.261719 171.242188 42.957031 175.949219 C 42.855469 176.023438 42.738281 176.0625 42.617188 176.0625 "/><path style=" stroke:none;fill-rule:nonzero;fill:#caddff;fill-opacity:1;" d="M 42.128906 199.070312 C 41.894531 199.070312 41.664062 199.058594 41.429688 199.039062 C 41.117188 199.011719 40.882812 198.738281 40.910156 198.421875 C 40.9375 198.109375 41.214844 197.878906 41.527344 197.90625 C 54.074219 198.988281 61.050781 165.960938 61.835938 162.042969 L 59.664062 160.664062 C 59.398438 160.496094 59.320312 160.140625 59.492188 159.878906 C 59.660156 159.613281 60.011719 159.535156 60.277344 159.703125 L 62.773438 161.292969 C 62.972656 161.417969 63.070312 161.648438 63.027344 161.878906 C 62.742188 163.421875 55.9375 199.070312 42.128906 199.070312 "/><path style=" stroke:none;fill-rule:nonzero;fill:#99b9ff;fill-opacity:1;" d="M 106.78125 134.371094 C 106.5 133.960938 106.5 133.433594 106.78125 133.023438 C 107.167969 132.460938 107.378906 131.851562 107.378906 131.214844 C 107.378906 128.261719 102.804688 125.867188 97.160156 125.867188 C 91.515625 125.867188 86.9375 128.261719 86.9375 131.214844 C 86.9375 131.851562 87.152344 132.460938 87.539062 133.023438 C 87.820312 133.433594 87.820312 133.960938 87.539062 134.371094 C 87.152344 134.933594 86.9375 135.546875 86.9375 136.179688 C 86.9375 137.582031 87.96875 138.855469 89.65625 139.808594 C 89.617188 139.96875 89.597656 140.128906 89.597656 140.292969 C 89.597656 142.480469 92.984375 144.25 97.160156 144.25 C 101.335938 144.25 104.722656 142.480469 104.722656 140.292969 C 104.722656 140.128906 104.703125 139.96875 104.664062 139.808594 C 106.351562 138.855469 107.378906 137.582031 107.378906 136.179688 C 107.378906 135.546875 107.167969 134.933594 106.78125 134.371094 "/><path style=" stroke:none;fill-rule:nonzero;fill:#000000;fill-opacity:1;" d="M 97.160156 126.4375 C 91.925781 126.4375 87.507812 128.625 87.507812 131.214844 C 87.507812 131.71875 87.675781 132.21875 88.007812 132.703125 C 88.425781 133.308594 88.425781 134.089844 88.007812 134.691406 C 87.675781 135.175781 87.507812 135.675781 87.507812 136.179688 C 87.507812 137.316406 88.371094 138.429688 89.933594 139.316406 L 90.304688 139.523438 L 90.207031 139.9375 C 90.179688 140.0625 90.164062 140.179688 90.164062 140.292969 C 90.164062 142.132812 93.367188 143.683594 97.160156 143.683594 C 100.949219 143.683594 104.152344 142.132812 104.152344 140.292969 C 104.152344 140.179688 104.140625 140.0625 104.109375 139.941406 L 104.011719 139.523438 L 104.382812 139.316406 C 105.949219 138.429688 106.8125 137.316406 106.8125 136.179688 C 106.8125 135.675781 106.644531 135.175781 106.3125 134.691406 C 105.894531 134.089844 105.894531 133.308594 106.3125 132.703125 C 106.644531 132.21875 106.8125 131.71875 106.8125 131.214844 C 106.8125 128.625 102.390625 126.4375 97.160156 126.4375 Z M 97.160156 144.820312 C 92.597656 144.820312 89.027344 142.832031 89.027344 140.292969 C 89.027344 140.230469 89.03125 140.167969 89.035156 140.105469 C 87.3125 139.03125 86.371094 137.648438 86.371094 136.179688 C 86.371094 135.441406 86.605469 134.722656 87.070312 134.046875 C 87.21875 133.832031 87.21875 133.5625 87.070312 133.347656 C 86.605469 132.671875 86.371094 131.953125 86.371094 131.214844 C 86.371094 127.898438 91.109375 125.300781 97.160156 125.300781 C 103.210938 125.300781 107.949219 127.898438 107.949219 131.214844 C 107.949219 131.953125 107.714844 132.671875 107.246094 133.347656 C 107.101562 133.5625 107.101562 133.832031 107.25 134.046875 C 107.714844 134.722656 107.949219 135.441406 107.949219 136.179688 C 107.949219 137.648438 107.007812 139.03125 105.285156 140.105469 C 105.289062 140.167969 105.292969 140.230469 105.292969 140.292969 C 105.292969 142.832031 101.71875 144.820312 97.160156 144.820312 "/><path style=" stroke:none;fill-rule:nonzero;fill:#ffffff;fill-opacity:1;" d="M 124.902344 90.222656 C 124.902344 75.082031 112.292969 62.164062 97.144531 62.164062 C 82.027344 62.164062 69.554688 74.734375 69.457031 89.84375 C 69.402344 97.539062 73.117188 104.699219 78.179688 109.707031 C 81.832031 113.324219 84.496094 117.8125 85.789062 122.785156 L 85.851562 123.027344 C 87.105469 127.851562 91.464844 131.21875 96.453125 131.21875 L 98.496094 131.21875 C 103.484375 131.21875 107.839844 127.851562 109.097656 123.027344 L 109.132812 122.878906 C 110.417969 117.945312 112.972656 113.410156 116.625 109.847656 C 121.730469 104.867188 124.902344 97.917969 124.902344 90.222656 "/><path style=" stroke:none;fill-rule:nonzero;fill:#000000;fill-opacity:1;" d="M 97.144531 62.730469 C 82.289062 62.730469 70.125 74.894531 70.023438 89.847656 C 69.980469 96.785156 73.097656 103.875 78.582031 109.300781 C 82.359375 113.039062 85.042969 117.652344 86.339844 122.640625 L 86.402344 122.878906 C 87.59375 127.453125 91.726562 130.648438 96.453125 130.648438 L 98.496094 130.648438 C 103.222656 130.648438 107.355469 127.453125 108.546875 122.878906 L 108.585938 122.734375 C 109.917969 117.613281 112.558594 113.015625 116.230469 109.4375 C 121.457031 104.339844 124.332031 97.519531 124.332031 90.222656 C 124.332031 75.320312 111.882812 62.730469 97.144531 62.730469 Z M 98.496094 131.785156 L 96.453125 131.785156 C 91.207031 131.785156 86.621094 128.242188 85.300781 123.167969 L 85.238281 122.925781 C 83.992188 118.136719 81.414062 113.703125 77.78125 110.109375 C 72.082031 104.46875 68.839844 97.082031 68.886719 89.839844 C 68.9375 82.367188 71.914062 75.296875 77.265625 69.933594 C 82.632812 64.554688 89.695312 61.59375 97.144531 61.59375 C 97.148438 61.59375 97.144531 61.59375 97.144531 61.59375 C 112.5 61.59375 125.472656 74.703125 125.472656 90.222656 C 125.472656 97.828125 122.472656 104.9375 117.023438 110.253906 C 113.503906 113.6875 110.964844 118.101562 109.6875 123.019531 L 109.648438 123.167969 C 108.328125 128.242188 103.742188 131.785156 98.496094 131.785156 "/><path style=" stroke:none;fill-rule:nonzero;fill:#000000;fill-opacity:1;" d="M 101.488281 85.394531 C 101.105469 85.746094 100.757812 86.171875 100.464844 86.691406 C 98.507812 90.140625 99.140625 91.980469 99.695312 92.769531 C 100.265625 93.589844 101.261719 94.015625 102.226562 93.851562 C 102.992188 93.726562 103.546875 93.246094 103.75 92.535156 C 104.46875 90.023438 103.253906 87.113281 101.488281 85.394531 Z M 93.277344 85.644531 C 92.414062 86.628906 91.71875 87.972656 91.210938 89.640625 C 90.648438 91.492188 90.824219 93.054688 91.699219 93.929688 C 92.265625 94.496094 93.054688 94.699219 93.816406 94.472656 C 94.75 94.191406 95.425781 93.328125 95.671875 92.101562 C 96.042969 90.265625 95.023438 86.675781 93.277344 85.644531 Z M 98.703125 127.859375 C 98.703125 127.859375 98.703125 127.859375 98.699219 127.859375 C 98.386719 127.859375 98.132812 127.601562 98.132812 127.289062 C 98.195312 112.523438 106.816406 95.863281 108.542969 92.671875 C 109.566406 90.78125 109.960938 89.234375 109.742188 87.941406 C 109.414062 86.03125 108.441406 84.800781 106.835938 84.289062 C 105.699219 83.921875 103.933594 83.886719 102.421875 84.722656 C 104.367188 86.703125 105.683594 89.914062 104.84375 92.847656 C 104.519531 93.980469 103.609375 94.777344 102.414062 94.976562 C 101.015625 95.207031 99.585938 94.601562 98.761719 93.421875 C 98.054688 92.414062 97.207031 90.125 99.472656 86.128906 C 99.800781 85.554688 100.179688 85.070312 100.597656 84.667969 C 100.546875 84.632812 100.496094 84.601562 100.445312 84.566406 C 99.300781 83.84375 97.417969 83.320312 95.566406 84.011719 C 95.050781 84.199219 94.566406 84.480469 94.117188 84.835938 C 96.191406 86.320312 97.226562 90.160156 96.789062 92.328125 C 96.453125 93.976562 95.492188 95.15625 94.144531 95.558594 C 92.992188 95.90625 91.746094 95.589844 90.894531 94.734375 C 89.714844 93.550781 89.433594 91.574219 90.121094 89.308594 C 90.671875 87.507812 91.386719 86.1875 92.148438 85.222656 C 89.078125 84.394531 86.941406 85.863281 86.359375 87.300781 C 85.671875 88.992188 85.921875 91.011719 87.011719 92.5625 C 89.539062 96.175781 95.457031 106.730469 95.746094 126.609375 C 95.75 126.925781 95.5 127.183594 95.183594 127.1875 C 95.183594 127.1875 95.179688 127.1875 95.175781 127.1875 C 94.867188 127.1875 94.613281 126.9375 94.609375 126.628906 C 94.324219 107.0625 88.546875 96.742188 86.078125 93.214844 C 84.75 91.320312 84.460938 88.949219 85.300781 86.875 C 86.226562 84.59375 89.332031 83.054688 93.003906 84.292969 C 93.753906 83.601562 94.511719 83.191406 95.167969 82.945312 C 97.410156 82.109375 99.675781 82.738281 101.050781 83.605469 C 101.210938 83.703125 101.371094 83.816406 101.527344 83.933594 C 103.421875 82.71875 105.726562 82.738281 107.183594 83.203125 C 109.722656 84.019531 110.585938 86.128906 110.863281 87.753906 C 111.128906 89.324219 110.710938 91.058594 109.542969 93.210938 C 107.839844 96.359375 99.332031 112.800781 99.273438 127.292969 C 99.269531 127.609375 99.015625 127.859375 98.703125 127.859375 "/><path style=" stroke:none;fill-rule:nonzero;fill:#000000;fill-opacity:1;" d="M 109.867188 107.996094 C 109.679688 107.996094 109.492188 107.902344 109.386719 107.730469 C 109.21875 107.464844 109.296875 107.113281 109.5625 106.945312 C 114.457031 103.871094 117.980469 98.871094 119.230469 93.234375 C 119.296875 92.929688 119.601562 92.734375 119.910156 92.800781 C 120.214844 92.871094 120.410156 93.175781 120.339844 93.480469 C 119.027344 99.414062 115.320312 104.671875 110.167969 107.910156 C 110.074219 107.96875 109.96875 107.996094 109.867188 107.996094 "/><path style=" stroke:none;fill-rule:nonzero;fill:#000000;fill-opacity:1;" d="M 80.015625 104.820312 C 79.859375 104.820312 79.699219 104.757812 79.589844 104.628906 C 75.867188 100.445312 73.816406 95.050781 73.816406 89.445312 C 73.816406 80.699219 78.683594 72.851562 86.519531 68.960938 C 86.800781 68.820312 87.144531 68.933594 87.285156 69.21875 C 87.421875 69.5 87.308594 69.839844 87.027344 69.980469 C 79.582031 73.675781 74.953125 81.136719 74.953125 89.445312 C 74.953125 94.773438 76.902344 99.898438 80.4375 103.875 C 80.648438 104.109375 80.625 104.46875 80.390625 104.675781 C 80.285156 104.773438 80.148438 104.820312 80.015625 104.820312 "/><path style=" stroke:none;fill-rule:nonzero;fill:#ffffff;fill-opacity:1;" d="M 98.90625 134.644531 C 98.632812 134.644531 98.394531 134.445312 98.347656 134.171875 C 98.292969 133.859375 98.5 133.566406 98.8125 133.515625 C 99.738281 133.355469 100.640625 133.152344 101.492188 132.914062 C 101.792969 132.828125 102.109375 133.003906 102.195312 133.304688 C 102.28125 133.609375 102.105469 133.921875 101.800781 134.007812 C 100.910156 134.257812 99.96875 134.46875 99.003906 134.632812 C 98.96875 134.640625 98.9375 134.644531 98.90625 134.644531 "/><path style=" stroke:none;fill-rule:nonzero;fill:#ffffff;fill-opacity:1;" d="M 94.597656 139.898438 C 94.285156 139.898438 94.03125 139.644531 94.027344 139.332031 C 94.027344 139.019531 94.277344 138.761719 94.59375 138.761719 C 96.691406 138.742188 99.769531 138.449219 102.519531 137.164062 C 102.804688 137.03125 103.140625 137.152344 103.273438 137.4375 C 103.410156 137.722656 103.285156 138.0625 103 138.195312 C 100.066406 139.566406 96.8125 139.875 94.601562 139.898438 C 94.601562 139.898438 94.597656 139.898438 94.597656 139.898438 "/><path style=" stroke:none;fill-rule:nonzero;fill:#000000;fill-opacity:1;" d="M 195.273438 135.289062 C 194.964844 135.289062 194.710938 135.042969 194.707031 134.734375 L 194.664062 132.71875 C 194.65625 132.402344 194.90625 132.144531 195.21875 132.136719 C 195.222656 132.136719 195.226562 132.136719 195.230469 132.136719 C 195.539062 132.136719 195.792969 132.382812 195.800781 132.695312 L 195.84375 134.710938 C 195.851562 135.023438 195.601562 135.285156 195.285156 135.289062 C 195.285156 135.289062 195.277344 135.289062 195.273438 135.289062 "/><path style=" stroke:none;fill-rule:nonzero;fill:#000000;fill-opacity:1;" d="M 195.425781 142.347656 C 195.117188 142.347656 194.863281 142.101562 194.855469 141.789062 L 194.8125 139.773438 C 194.808594 139.460938 195.054688 139.203125 195.371094 139.195312 C 195.375 139.195312 195.378906 139.195312 195.382812 139.195312 C 195.691406 139.195312 195.945312 139.441406 195.953125 139.75 L 195.996094 141.765625 C 196 142.082031 195.753906 142.339844 195.4375 142.347656 C 195.433594 142.347656 195.429688 142.347656 195.425781 142.347656 "/><path style=" stroke:none;fill-rule:nonzero;fill:#000000;fill-opacity:1;" d="M 190.855469 137.847656 C 190.542969 137.847656 190.289062 137.59375 190.285156 137.28125 C 190.285156 136.96875 190.539062 136.710938 190.851562 136.707031 L 192.839844 136.691406 C 192.839844 136.691406 192.84375 136.691406 192.84375 136.691406 C 193.15625 136.691406 193.410156 136.945312 193.414062 137.257812 C 193.414062 137.570312 193.164062 137.828125 192.847656 137.832031 L 190.859375 137.847656 C 190.859375 137.847656 190.859375 137.847656 190.855469 137.847656 "/><path style=" stroke:none;fill-rule:nonzero;fill:#000000;fill-opacity:1;" d="M 197.8125 137.789062 C 197.503906 137.789062 197.246094 137.539062 197.246094 137.226562 C 197.242188 136.914062 197.496094 136.65625 197.808594 136.652344 L 199.796875 136.636719 C 200.105469 136.628906 200.367188 136.890625 200.371094 137.203125 C 200.371094 137.515625 200.121094 137.773438 199.804688 137.773438 L 197.820312 137.789062 C 197.816406 137.789062 197.816406 137.789062 197.8125 137.789062 "/><path style=" stroke:none;fill-rule:nonzero;fill:#000000;fill-opacity:1;" d="M 312.097656 40.5 C 311.789062 40.5 311.535156 40.253906 311.527344 39.941406 L 311.484375 37.925781 C 311.476562 37.613281 311.726562 37.351562 312.042969 37.34375 C 312.042969 37.34375 312.050781 37.34375 312.054688 37.34375 C 312.363281 37.34375 312.617188 37.589844 312.621094 37.902344 L 312.667969 39.917969 C 312.671875 40.230469 312.421875 40.492188 312.113281 40.5 C 312.105469 40.5 312.101562 40.5 312.097656 40.5 "/><path style=" stroke:none;fill-rule:nonzero;fill:#000000;fill-opacity:1;" d="M 312.25 47.558594 C 311.941406 47.558594 311.6875 47.308594 311.679688 47 L 311.636719 44.984375 C 311.632812 44.667969 311.878906 44.410156 312.195312 44.402344 C 312.195312 44.402344 312.203125 44.402344 312.207031 44.402344 C 312.515625 44.402344 312.769531 44.648438 312.777344 44.960938 L 312.816406 46.976562 C 312.824219 47.292969 312.578125 47.550781 312.261719 47.554688 C 312.257812 47.558594 312.253906 47.558594 312.25 47.558594 "/><path style=" stroke:none;fill-rule:nonzero;fill:#000000;fill-opacity:1;" d="M 307.679688 43.058594 C 307.367188 43.058594 307.113281 42.804688 307.109375 42.492188 C 307.105469 42.179688 307.359375 41.921875 307.675781 41.921875 L 309.660156 41.902344 C 309.988281 41.898438 310.234375 42.152344 310.234375 42.46875 C 310.238281 42.78125 309.984375 43.039062 309.667969 43.039062 L 307.683594 43.058594 C 307.683594 43.058594 307.679688 43.058594 307.679688 43.058594 "/><path style=" stroke:none;fill-rule:nonzero;fill:#000000;fill-opacity:1;" d="M 314.636719 43 C 314.320312 43 314.066406 42.75 314.066406 42.4375 C 314.0625 42.125 314.316406 41.867188 314.632812 41.863281 L 316.621094 41.847656 C 316.9375 41.847656 317.1875 42.101562 317.191406 42.414062 C 317.195312 42.726562 316.941406 42.984375 316.628906 42.988281 L 314.640625 43 C 314.636719 43 314.636719 43 314.636719 43 "/><path style=" stroke:none;fill-rule:nonzero;fill:#000000;fill-opacity:1;" d="M 211.222656 313.667969 C 203.441406 313.667969 195.691406 312.941406 188.101562 311.488281 C 187.792969 311.429688 187.589844 311.132812 187.648438 310.824219 C 187.707031 310.515625 188.011719 310.316406 188.316406 310.371094 C 198.03125 312.226562 208.015625 312.894531 217.992188 312.34375 C 241.949219 311.03125 264.75 302.8125 283.929688 288.574219 C 284.183594 288.386719 284.539062 288.4375 284.730469 288.691406 C 284.914062 288.941406 284.863281 289.296875 284.609375 289.484375 C 265.25 303.859375 242.234375 312.152344 218.054688 313.480469 C 215.777344 313.605469 213.496094 313.667969 211.222656 313.667969 "/><path style=" stroke:none;fill-rule:nonzero;fill:#000000;fill-opacity:1;" d="M 284.269531 289.597656 C 284.097656 289.597656 283.925781 289.519531 283.8125 289.367188 C 283.625 289.117188 283.679688 288.761719 283.929688 288.574219 C 284.816406 287.917969 285.703125 287.238281 286.570312 286.558594 C 286.816406 286.363281 287.175781 286.40625 287.371094 286.652344 C 287.5625 286.902344 287.519531 287.257812 287.273438 287.453125 C 286.398438 288.140625 285.5 288.824219 284.609375 289.484375 C 284.507812 289.5625 284.390625 289.597656 284.269531 289.597656 "/><path style=" stroke:none;fill-rule:nonzero;fill:#000000;fill-opacity:1;" d="M 212.964844 323.191406 C 212.652344 323.191406 212.398438 322.9375 212.398438 322.625 C 212.394531 322.3125 212.648438 322.054688 212.960938 322.054688 C 244.585938 321.824219 275.332031 310.894531 299.535156 291.273438 C 299.777344 291.074219 300.136719 291.113281 300.332031 291.355469 C 300.53125 291.601562 300.492188 291.960938 300.25 292.15625 C 288.261719 301.875 274.785156 309.484375 260.207031 314.769531 C 245.117188 320.242188 229.226562 323.074219 212.96875 323.191406 C 212.96875 323.191406 212.96875 323.191406 212.964844 323.191406 "/><path style=" stroke:none;fill-rule:nonzero;fill:#000000;fill-opacity:1;" d="M 201.683594 324.109375 L 205.046875 325.980469 L 204.300781 321.890625 Z M 205.824219 327.632812 C 205.726562 327.632812 205.632812 327.609375 205.546875 327.5625 L 200.410156 324.707031 C 200.246094 324.613281 200.140625 324.449219 200.121094 324.265625 C 200.101562 324.078125 200.175781 323.894531 200.320312 323.773438 L 204.316406 320.386719 C 204.472656 320.253906 204.683594 320.214844 204.878906 320.285156 C 205.066406 320.355469 205.210938 320.519531 205.246094 320.71875 L 206.382812 326.960938 C 206.421875 327.179688 206.332031 327.398438 206.15625 327.527344 C 206.054688 327.597656 205.941406 327.632812 205.824219 327.632812 "/><path style=" stroke:none;fill-rule:nonzero;fill:#000000;fill-opacity:1;" d="M 252.011719 36.300781 C 251.929688 36.300781 251.84375 36.28125 251.765625 36.242188 C 251.53125 36.125 228.066406 24.851562 195.792969 28.558594 C 195.488281 28.59375 195.199219 28.371094 195.164062 28.058594 C 195.125 27.746094 195.351562 27.464844 195.664062 27.429688 C 228.285156 23.679688 252.03125 35.105469 252.265625 35.21875 C 252.546875 35.359375 252.664062 35.699219 252.527344 35.980469 C 252.425781 36.183594 252.226562 36.300781 252.011719 36.300781 "/><path style=" stroke:none;fill-rule:nonzero;fill:#000000;fill-opacity:1;" d="M 266.402344 37.738281 C 266.28125 37.738281 266.164062 37.699219 266.058594 37.625 C 241.429688 19.21875 210.527344 22.496094 210.214844 22.53125 C 209.910156 22.566406 209.621094 22.34375 209.585938 22.03125 C 209.550781 21.71875 209.773438 21.4375 210.085938 21.398438 C 210.164062 21.390625 218.070312 20.523438 228.941406 21.972656 C 238.976562 23.308594 253.679688 26.953125 266.742188 36.714844 C 266.996094 36.902344 267.046875 37.257812 266.855469 37.511719 C 266.746094 37.65625 266.574219 37.738281 266.402344 37.738281 "/><path style=" stroke:none;fill-rule:nonzero;fill:#000000;fill-opacity:1;" d="M 188.609375 30.34375 L 192.230469 31.652344 L 190.839844 27.734375 Z M 193.167969 33.164062 C 193.101562 33.164062 193.039062 33.15625 192.976562 33.132812 L 187.449219 31.136719 C 187.273438 31.070312 187.140625 30.925781 187.089844 30.746094 C 187.042969 30.5625 187.085938 30.371094 187.210938 30.230469 L 190.613281 26.246094 C 190.746094 26.089844 190.949219 26.019531 191.148438 26.054688 C 191.351562 26.09375 191.511719 26.234375 191.582031 26.425781 L 193.703125 32.40625 C 193.777344 32.613281 193.726562 32.847656 193.570312 33 C 193.460938 33.109375 193.316406 33.164062 193.167969 33.164062 "/><path style=" stroke:none;fill-rule:nonzero;fill:#000000;fill-opacity:1;" d="M 272.101562 40.261719 C 271.574219 40.261719 271.042969 40.375 270.542969 40.597656 C 268.582031 41.480469 267.6875 43.832031 268.554688 45.835938 C 268.976562 46.816406 269.75 47.5625 270.726562 47.945312 C 271.683594 48.316406 272.726562 48.289062 273.664062 47.867188 C 275.625 46.988281 276.519531 44.636719 275.652344 42.632812 C 275.230469 41.652344 274.457031 40.90625 273.480469 40.523438 C 273.03125 40.351562 272.566406 40.261719 272.101562 40.261719 Z M 272.105469 49.339844 C 271.5 49.339844 270.894531 49.230469 270.3125 49.003906 C 269.050781 48.511719 268.054688 47.550781 267.511719 46.289062 C 266.398438 43.714844 267.550781 40.695312 270.078125 39.5625 C 271.292969 39.015625 272.648438 38.980469 273.894531 39.464844 C 275.15625 39.957031 276.152344 40.921875 276.699219 42.179688 C 277.808594 44.753906 276.65625 47.769531 274.128906 48.90625 C 273.480469 49.199219 272.792969 49.339844 272.105469 49.339844 "/></g></svg>